<svg xmlns="http://www.w3.org/2000/svg" viewBox="0 0 66.31 66.31"><defs><style>.cls-1{fill:#17a6db;}.cls-2{fill:none;}</style></defs><g id="Layer_2" data-name="Layer 2"><g id="Layer_1-2" data-name="Layer 1"><path class="cls-1" d="M35.44,66.31H30.87a2.81,2.81,0,0,1-2.8-2.8V60.9l-.53-.32A19.1,19.1,0,0,1,25.8,59.4a18.38,18.38,0,0,1-1.91-1.68,15.89,15.89,0,0,1-1.84-2.23,14.54,14.54,0,0,1-1.48-2.79,13.65,13.65,0,0,1-.87-3.38A11.77,11.77,0,0,1,20,44.49a9.2,9.2,0,0,1,2.37-4,10.1,10.1,0,0,1,1.84-1.43,11.16,11.16,0,0,1,1-.55,5.47,5.47,0,0,1,.53-.22l.36-.16.13-.05a15.54,15.54,0,0,1,3.54-.92A22.35,22.35,0,0,1,32.15,37h.11c.6,0,1.18,0,1.79,0h.1a21.58,21.58,0,0,1,2.38.19,15.58,15.58,0,0,1,3.56.92l.13.05a3.92,3.92,0,0,0,.36.16,5.32,5.32,0,0,1,.5.21,9,9,0,0,1,1,.58,9.41,9.41,0,0,1,4.19,5.41,11.78,11.78,0,0,1,.3,4.83,13.21,13.21,0,0,1-.86,3.38,14.4,14.4,0,0,1-1.49,2.8,16.84,16.84,0,0,1-1.81,2.21A18.6,18.6,0,0,1,40.5,59.4a19.23,19.23,0,0,1-1.78,1.21l-.48.29v2.61A2.81,2.81,0,0,1,35.44,66.31Zm-4.17-3.2H35V59.93c0-1.07.86-1.45,1.43-1.71.18-.1.38-.21.58-.34a15.84,15.84,0,0,0,3.11-2.42,12.75,12.75,0,0,0,1.45-1.77,11.36,11.36,0,0,0,1.17-2.18,10.46,10.46,0,0,0,.65-2.59,8.67,8.67,0,0,0-.2-3.54h0a6,6,0,0,0-1.56-2.62,8.47,8.47,0,0,0-2-1.39l-.29-.11L38.86,41a12.74,12.74,0,0,0-2.77-.71,17.14,17.14,0,0,0-2-.15H32.22a15.53,15.53,0,0,0-2,.16,12,12,0,0,0-2.77.7l-.52.22-.32.14c-.21.1-.46.24-.69.38a7,7,0,0,0-1.28,1,6,6,0,0,0-1.55,2.61,8.72,8.72,0,0,0-.21,3.55,11.14,11.14,0,0,0,.66,2.6,11.54,11.54,0,0,0,1.16,2.17,13.55,13.55,0,0,0,1.47,1.79,15.61,15.61,0,0,0,1.58,1.38,14.23,14.23,0,0,0,1.48,1c.22.14.4.25.59.35.62.28,1.46.67,1.46,1.72Z"/><path class="cls-1" d="M15.59,27.08a7.76,7.76,0,0,1-2.76-.5,8,8,0,0,1-4.91-5.23c-2-6.83,0-16.12,7-19.85A12.7,12.7,0,0,1,20.17,0c3.52-.18,8.68,1.52,9.2,5.85.34,2.9-1.91,5.36-4.05,7.44-2.32,2.26-2.39,3.46-2.53,5.85,0,.68-.08,1.38-.17,2.19-.43,3.75-3.84,5.73-7,5.74Zm5.1-23.89h-.36A9.52,9.52,0,0,0,16.4,4.31c-5.54,3-7.1,10.52-5.42,16.12a4.85,4.85,0,0,0,3,3.16,4.56,4.56,0,0,0,1.62.29h0c1.68,0,3.6-.92,3.82-2.9.09-.72.12-1.38.16-2,.16-2.7.28-4.83,3.49-8,2.31-2.24,3.24-3.67,3.1-4.78C26,4.21,22.91,3.19,20.69,3.19Z"/><path class="cls-1" d="M21.45,46.31a1.62,1.62,0,0,1-1-.35c-2.55-2-5.74-5.29-4-10,1.1-3,3.56-4.65,5.74-6.14s3.84-2.64,4.38-4.64c.63-2.33-.78-4.84-4.86-8.67a1.6,1.6,0,0,1,2.19-2.33c3.71,3.48,7,7.33,5.75,11.84C28.8,29.19,26.25,31,24,32.49c-2,1.35-3.81,2.62-4.55,4.62-.68,1.83-.44,3.61,3,6.35a1.6,1.6,0,0,1-1,2.85Z"/><path class="cls-1" d="M50.72,27.08h0c-3.15,0-6.56-2-7-5.74-.09-.81-.13-1.51-.17-2.19-.14-2.39-.21-3.6-2.53-5.85-2.14-2.08-4.39-4.54-4.05-7.44.51-4.34,5.7-6,9.2-5.85A12.74,12.74,0,0,1,51.42,1.5c7,3.73,9,13,7,19.85a8.06,8.06,0,0,1-4.91,5.23A7.76,7.76,0,0,1,50.72,27.08ZM45.62,3.19c-2.22,0-5.27,1-5.51,3-.13,1.11.8,2.54,3.11,4.78,3.21,3.12,3.33,5.25,3.49,8,0,.64.07,1.3.15,2,.23,2,2.15,2.9,3.83,2.9h0a4.61,4.61,0,0,0,1.62-.29,4.9,4.9,0,0,0,3-3.16c1.68-5.6.11-13.16-5.42-16.12A9.56,9.56,0,0,0,46,3.2Z"/><path class="cls-1" d="M44.86,46.31a1.6,1.6,0,0,1-1-2.85c3.43-2.74,3.68-4.52,3-6.35-.75-2-2.59-3.27-4.55-4.62-2.25-1.54-4.8-3.3-5.65-6.43-1.22-4.51,2-8.36,5.75-11.84a1.6,1.6,0,0,1,2.19,2.33c-4.08,3.83-5.49,6.34-4.86,8.67.54,2,2.32,3.23,4.38,4.64s4.63,3.19,5.73,6.14c1.75,4.67-1.44,7.92-4,10A1.64,1.64,0,0,1,44.86,46.31Z"/><rect class="cls-2" width="66.31" height="66.31"/></g></g></svg>