<svg xmlns="http://www.w3.org/2000/svg" viewBox="0 0 35 35"><defs><style>.cls-1{fill:#17a6db;}.cls-2{fill:#fff;}</style></defs><title>footer-hotline</title><g id="Layer_2" data-name="Layer 2"><g id="Layer_1-2" data-name="Layer 1"><circle class="cls-1" cx="17.5" cy="17.5" r="17.5"/><path class="cls-2" d="M9.58,9.78,13.05,9a.81.81,0,0,1,.91.47l1.61,3.74a.8.8,0,0,1-.23.93l-2,1.66a12.4,12.4,0,0,0,5.92,5.91l1.65-2a.8.8,0,0,1,.94-.23L25.56,21A.83.83,0,0,1,26,22l-.81,3.47a.79.79,0,0,1-.78.63A15.49,15.49,0,0,1,9,10.56.79.79,0,0,1,9.58,9.78Z"/></g></g></svg>