<svg id="Layer_1" data-name="Layer 1" xmlns="http://www.w3.org/2000/svg" viewBox="0 0 655.19 168"><defs><style>.cls-1{fill:#fff;}</style></defs><path class="cls-1" d="M230.31,151.57v-24.4h-20v24.4H194.77v-61h15.58v22.95h20V90.54h15.58v61Z"/><path class="cls-1" d="M309.21,143.68a33.17,33.17,0,0,1-45.37.16,29.11,29.11,0,0,1-9.58-22,35.77,35.77,0,0,1,2.38-13,27.9,27.9,0,0,1,4-6.85q9.51-12.51,25.81-12.52a31.45,31.45,0,0,1,22.78,9.1,30.17,30.17,0,0,1,9.42,22.54A30.35,30.35,0,0,1,309.21,143.68Zm-10.67-35.1a15.31,15.31,0,0,0-12-5.48,15.49,15.49,0,0,0-12.08,5.31,18,18,0,0,0-4.59,12.48,18.45,18.45,0,0,0,4.63,12.72,15.53,15.53,0,0,0,12.2,5.44,15.06,15.06,0,0,0,11.87-5.48,19.56,19.56,0,0,0,0-25Z"/><path class="cls-1" d="M366.37,151.57l-3-8.82H342.22L339,151.57H322.25l24.48-61H359l24.27,61Zm-6.92-64-20.37-8.89,4.19-9.66,20,10.54ZM353,109.54h-.24l-6.28,20.85h12.8Z"/><path class="cls-1" d="M427.44,151.57l-23.23-37.12-.2.08.44,37H389.52v-61H403l23.59,38.36.16-.16L426,90.54H441v61Z"/><path class="cls-1" d="M538,128.74a30.63,30.63,0,0,1-11.23,17.39,32.61,32.61,0,0,1-42.34-2.57,31.78,31.78,0,0,1-.08-45.09A31.25,31.25,0,0,1,507,89.41q17.38,0,26.85,14.34a25.55,25.55,0,0,1,4.14,10H521.67q-4.06-10.64-14.73-10.63a15.08,15.08,0,0,0-11.88,5.36,18.36,18.36,0,0,0-4.46,12.43,18.8,18.8,0,0,0,4.46,12.6,15,15,0,0,0,12,5.56q10,0,14.65-10.31Z"/><path class="cls-1" d="M585.39,151.57l-3-8.82H561.24L558,151.57H541.28l24.47-61H578l24.27,61Zm-9.74-66.38-3.78-4.75-3.79,4.75H554.72L567.56,71.5h8.9l12.4,13.69Zm9.14-12.12-20.37-8.89,4.19-9.67,20,10.55ZM572,109.54h-.24l-6.28,20.85h12.8Z"/><path class="cls-1" d="M655.19,127.41a40.26,40.26,0,0,1-1,10.11,19.78,19.78,0,0,1-5,8.61q-6.5,6.6-17.07,6.6a29.21,29.21,0,0,1-9.5-1.48,19.5,19.5,0,0,1-8-5,20.69,20.69,0,0,1-5.16-8.69,28.81,28.81,0,0,1-.8-4.71c-.11-1.4-.16-3.19-.16-5.4V90.54H624v36.87a30.75,30.75,0,0,0,.24,4.15,12.08,12.08,0,0,0,1.09,3.74q1.85,3.75,6.6,3.75t6.6-3.66a12.82,12.82,0,0,0,1-3.71c.11-1.07.17-2.49.17-4.27V90.54h15.57Z"/><path class="cls-1" d="M210.29,39.05a9.3,9.3,0,0,1-3.59,1.39c-.59.1-1.23.18-1.93.23s-1.21.06-2,.06h-5.15V52.37h-2.9V23.43h8q1.11,0,2,.06c.7.05,1.34.13,1.93.23a9.64,9.64,0,0,1,3.59,1.41,7.92,7.92,0,0,1,3.58,7A8,8,0,0,1,210.29,39.05Zm-2.66-12.24a7.15,7.15,0,0,0-2.42-.67L204,26.07h-6.3v12H204l1.24-.07a7.38,7.38,0,0,0,2.42-.65A5.46,5.46,0,0,0,211,32.08,5.43,5.43,0,0,0,207.63,26.81Z"/><path class="cls-1" d="M235.81,52.37V38.8h-15V52.37h-2.9V23.43h2.9V36.18h15V23.43h2.88V52.37Z"/><path class="cls-1" d="M269.38,48.53a15.41,15.41,0,0,1-21.44,0,14,14,0,0,1-4.6-10.51,14.52,14.52,0,0,1,4.49-10.73,15.49,15.49,0,0,1,21.57,0,14.62,14.62,0,0,1,0,21.24Zm-2-19.33a12.31,12.31,0,0,0-17.54,0,12.16,12.16,0,0,0-3.6,8.82,11.58,11.58,0,0,0,3.7,8.6,12.34,12.34,0,0,0,17.42,0,11.71,11.71,0,0,0,3.69-8.7A11.86,11.86,0,0,0,267.39,29.2Zm-5.67-7.41L254,17.61l1.27-2.34L263,19.54Z"/><path class="cls-1" d="M298.68,52.37,281.52,26.93h-.08V52.37h-2.9V23.43h3.91l16.15,24h.08v-24h2.88V52.37Z"/><path class="cls-1" d="M336.89,39.09A14.3,14.3,0,0,1,332,49a15,15,0,0,1-10.36,3.94,15.26,15.26,0,0,1-10.84-4.36,14.48,14.48,0,0,1,0-21.28,15.81,15.81,0,0,1,22.66,1,10.31,10.31,0,0,1,1.87,2.91h-3.36A10.76,10.76,0,0,0,327.48,27a12.5,12.5,0,0,0-5.88-1.47,12.3,12.3,0,0,0-8.88,3.61A11.8,11.8,0,0,0,309,37.94a11.64,11.64,0,0,0,3.78,8.78,12.61,12.61,0,0,0,8.95,3.53A12.33,12.33,0,0,0,329,47.87a10.75,10.75,0,0,0,4.42-6.17H317.27V39.09Z"/><path class="cls-1" d="M368.88,52.37l-9.66-12.54-3.74,4.6v7.94h-2.9V23.43h2.9V40.06h.07L368.8,23.43h3.7L361.05,37.56,372.5,52.37Z"/><path class="cls-1" d="M393.35,52.37V38.8h-15V52.37h-2.9V23.43h2.9V36.18h15V23.43h2.88V52.37Z"/><path class="cls-1" d="M424.53,52.37l-4.2-9.73H406.9l-4.22,9.73h-3L412,23.43h3.25l12.42,28.94ZM413.65,26.74,408,40h11.23Zm-3-4.95-1.29-2.25,7.78-4.27,1.25,2.34Z"/><path class="cls-1" d="M458.16,52.37V26.6h-.07L447.26,52.37H444.8L434.06,26.6H434V52.37h-2.9V23.43h4.45L446,48.08,456.6,23.43h4.46V52.37Z"/><path class="cls-1" d="M477.75,36.18V23.43h8.43a21,21,0,0,1,4.89.58,14.48,14.48,0,0,1,4.52,1.81A13.56,13.56,0,0,1,502.18,38a13.54,13.54,0,0,1-6.59,12,15,15,0,0,1-4.54,1.84,21.39,21.39,0,0,1-4.87.55h-8.43V38.8h-2.33V36.18Zm2.88,2.62v11h4.81c.95,0,1.78,0,2.48-.07a16.12,16.12,0,0,0,2.37-.33,11.49,11.49,0,0,0,4.44-1.94,10.47,10.47,0,0,0,3.4-4.24,12.75,12.75,0,0,0,1.15-5.31,11,11,0,0,0-4.93-9.58,11.76,11.76,0,0,0-4.56-1.85,20.7,20.7,0,0,0-2.46-.3q-1.05-.06-2.52-.06h-4.18V36.18h8.78V38.8Z"/><path class="cls-1" d="M529.26,52.37l-4.2-9.73H511.63l-4.22,9.73h-3l12.35-28.94H520l12.42,28.94ZM518.38,26.74,512.71,40h11.23Z"/><path class="cls-1" d="M563.12,52.37l-9.66-12.54-3.74,4.6v7.94h-2.9V23.43h2.9V40.06h.08L563,23.43h3.71L555.3,37.56l11.45,14.81Z"/><path class="cls-1" d="M587.59,52.37V38.8h-15V52.37h-2.91V23.43h2.91V36.18h15V23.43h2.88V52.37Z"/><path class="cls-1" d="M621.16,48.53a15.4,15.4,0,0,1-21.43,0,14,14,0,0,1-4.6-10.51,14.51,14.51,0,0,1,4.48-10.73,15.49,15.49,0,0,1,21.57,0,14.62,14.62,0,0,1,0,21.24Zm-2-19.33a12,12,0,0,0-8.76-3.65,11.84,11.84,0,0,0-8.78,3.69A12.12,12.12,0,0,0,598,38.06a11.58,11.58,0,0,0,3.7,8.6,12.35,12.35,0,0,0,17.43,0,11.74,11.74,0,0,0,3.68-8.7A11.89,11.89,0,0,0,619.18,29.2Z"/><path class="cls-1" d="M652.05,52.37l-4.2-9.73H634.41l-4.22,9.73h-3l12.35-28.94h3.25l12.42,28.94ZM641.17,26.74,635.5,40h11.22Z"/><polygon class="cls-1" points="79.51 8.67 79.48 8.67 78.95 10.91 80.3 10.83 79.51 8.67"/><polygon class="cls-1" points="54.44 14.55 54.69 16.84 55.94 16.31 54.46 14.54 54.44 14.55"/><path class="cls-1" d="M72.49,9.83l.23,1.43-.93.15L72,12.52l.7-.1a1.5,1.5,0,0,0,1.12-.68A2,2,0,0,0,74,10.43a2.06,2.06,0,0,0-.57-1.21,1.45,1.45,0,0,0-1.26-.32L71.41,9l.15,1Z"/><path class="cls-1" d="M23.71,40.59a2,2,0,0,0,1.37.42,1.65,1.65,0,0,0,1.24-.68A1.59,1.59,0,0,0,26.61,39a1.91,1.91,0,0,0-.76-1.17,1.93,1.93,0,0,0-1.34-.43,1.71,1.71,0,0,0-1.55,2A1.92,1.92,0,0,0,23.71,40.59Z"/><polygon class="cls-1" points="110.49 13.32 110.47 13.31 109.08 15.14 110.34 15.62 110.49 13.32"/><polygon class="cls-1" points="132.11 25.86 132.09 25.84 130.17 27.12 131.21 27.98 132.11 25.86"/><polygon class="cls-1" points="148.4 44.65 148.38 44.63 146.16 45.21 146.86 46.36 148.4 44.65"/><path class="cls-1" d="M84,142A58,58,0,1,0,26,84,58.09,58.09,0,0,0,84,142Zm40.64-18.12-2.27-2.27a5.28,5.28,0,0,1,.57-.47c.3-.21.59-.45.87-.69a21,21,0,0,1-.32-2.63,1.49,1.49,0,0,1-.64.35c-.28-.26-.77.16-.88-.34a3.36,3.36,0,0,1,.9-1.52,8.53,8.53,0,0,1,.69.65,4.44,4.44,0,0,1,.72-1.94c-.31-.35-.37-.73,0-1.32s-.4-1.84-1.26-1.79a12.27,12.27,0,0,1-1.23-.09c-.66,0-.61-.4-.58-.83a10.08,10.08,0,0,1,.54-2.23l0-.14a44.9,44.9,0,0,0,7.34-24.14H141A56.78,56.78,0,0,1,124.64,123.91Zm-11.8-55.49c-.62,0-.87-.52-1.34-.56-.07.75.87,1,.79,1.77a3.45,3.45,0,0,1-1.17-.57c-.15-.11-.42-.22,0-.41s0-.27-.09-.38c-.68-.59-.83-1.11-.4-1.77a4.87,4.87,0,0,1-1-.83c0,.15-.1.35-.17.61,0,.11,0,.35-.2.25a1.54,1.54,0,0,0-.55-.14c-.24-.34-.49-.67-.75-1l.61-.61a2.28,2.28,0,0,1,.23-.22,6.51,6.51,0,0,1-.68-1.82,8.63,8.63,0,0,0-1.48-.6l9-9a44,44,0,0,1,12.57,30.31h-5.56c-.07-.2-.15-.39-.23-.6h.41A2.13,2.13,0,0,1,122,81h0a.76.76,0,0,1-.55-1.16c.43-.58.41-1.45,1.25-1.76.27-.11.09-.46,0-.69a1.15,1.15,0,0,1,1-1.76.76.76,0,0,0,.8-.67,2.27,2.27,0,0,1,.42-.87,2,2,0,0,0,.4-.86,10,10,0,0,1,0,2,2.68,2.68,0,0,1,.77-.21,8.75,8.75,0,0,1,.47-1.53,10.61,10.61,0,0,0-.94-2.34c-.07.38-.17.76-.28,1.14-.45-.55-.86-.49-1.09.14a1.3,1.3,0,0,0-.09.68,2.73,2.73,0,0,1-.12,1.17c-.08.32-.17.75-.64.68s-.59-.37-.58-.81a6.8,6.8,0,0,1,.13-1.8A2.84,2.84,0,0,0,121.29,70a.55.55,0,0,0-.71.48c-.09.41-.1.83-.19,1.24-.13.57-.37.64-.8.24a1.49,1.49,0,0,1-.58-1c.14-.3.73.16.67-.34a.59.59,0,0,0-.86-.51c-.27.08-.43-.16-.56-.34-.29-.37-.56-.75-.82-1.13a4,4,0,0,0-2.53-1.71,2.68,2.68,0,0,1-.37-.12l-.36.11A4.55,4.55,0,0,1,112,67,14.7,14.7,0,0,1,112.84,68.42Zm.11,38a6.42,6.42,0,0,1-2.29-.26c-.17,0-.32-1-.17-1.18a.64.64,0,0,1,.93,0C111.9,105.34,112.35,105.8,113,106.39Zm-16.66,2-1.05-.1a1.14,1.14,0,0,1-1-.92,16.8,16.8,0,0,1-2.25.2c.33-.23.65-.37.77-.79a.48.48,0,0,1,.6-.35,1.83,1.83,0,0,0,1.5-.4.85.85,0,0,1,.93-.13l.66-.25a.87.87,0,0,1,1.15.56c.32,0,.66,0,1,0a1,1,0,0,1,.14-.31,2.71,2.71,0,0,1-1.55-.54c-.12-.1-.2-.2-.12-.35s.16-.21.29-.16a14.85,14.85,0,0,0,3,.55.33.33,0,0,1,.15.1,7.32,7.32,0,0,0,3.82-.45l0,0a29.14,29.14,0,0,1-6.62,4.81,2.41,2.41,0,0,1-.75-.05,1.15,1.15,0,0,1,.31-.73A5.68,5.68,0,0,1,96.29,108.37Zm-4.81-7.1a2.44,2.44,0,0,1-.74-.49c-.36-.33-.72-.69-1.07-1.06a16.85,16.85,0,0,0,5.07-2.92c.13.52.24,1,.35,1.45a2.86,2.86,0,0,1,.07.86l.35.58c.25.43.45.44.78,0s.61-.8.35-1.37a.58.58,0,0,1,0-.48,1.19,1.19,0,0,0,.12-.38l1.63,1.62c0,.33-.22.47-.8.7a.88.88,0,0,0-.41.26c-.49.69-1.3.48-2,.65a.39.39,0,0,1-.5-.37,3,3,0,0,1-.51.55c-.12.3-.48.52-.87.8a16.34,16.34,0,0,1-1.9,1.54A2.48,2.48,0,0,0,91.48,101.27Zm2.64-11.18A1.27,1.27,0,0,0,94,91a17.69,17.69,0,0,1-.11,2.18l-8.64-8.64H99.1a.59.59,0,0,1-.3.06l.83.42c-.09,0-.13.07-.17.06-.32-.09-.79-.36-.94,0s.4.46.67.62a3.72,3.72,0,0,0,.39.21,16.75,16.75,0,0,1-.38,2,.74.74,0,0,0-.14.22c-.16.42-.48.54-.87.17a1.39,1.39,0,0,0-.36-.2.25.25,0,0,0-.31.06c-.12.18.06.24.17.3a4.75,4.75,0,0,1,.83.51l.29.22c-.06.18-.12.35-.19.52a.87.87,0,0,0-.69-.4,21.05,21.05,0,0,0-3.36-.36c-.08,0-.13-.19-.32-.12A1.19,1.19,0,0,1,94.12,90.09Zm.71-13.75c.33.78.53.84,1.18.3.29-.24.48-.29.7.07s.26.38.79.1c-.21.93-1.53,1.21-1.18,2.3.75-.11.79,0,.73,1,0,.49-.19.63-.69.64a2.23,2.23,0,0,0-2,1.16c-.16.3-.57.27-.78.64,1.18-.66,2,.26,3,.5a3.36,3.36,0,0,1,1.27.43H85.24L94,74.72a.41.41,0,0,0,.24.08c.54,0,.51.36.49.72A1.91,1.91,0,0,0,94.83,76.34Zm3.86,20.81c.25.23.52.44-.11.54a.37.37,0,0,0-.11,0l-2.06-2.06c.21-.13.45-.2.71.17.42.61.94.59,1.43,0,.25-.29.44-.69,1-.58a1.37,1.37,0,0,1-.68.81C98.36,96.38,98.22,96.72,98.69,97.15ZM97.79,91c.06-.14.19-.11.29-.13h0l-.12.24Zm1.61.19a2.66,2.66,0,0,1-.49.35c.15-.29.29-.58.42-.88C99.49,90.8,99.83,90.88,99.4,91.2ZM105,63.72l.07-.06c.29.31.59.63.87,1-.24.24-.47.48-.72.72a1.39,1.39,0,0,1-1,.29c-1.09,0-1.47.93-2.11,1.52-.11.11-.06.31,0,.47s.51.28.28.54-.6.79-1.09.95a2,2,0,0,1-1.6-.06l5-5h0c.14-.06.29,0,.38-.23C105.05,63.81,105,63.77,105,63.72Zm1.2,36.68c.26-.46.44-.29.7,0a5.18,5.18,0,0,0,.79.54,2.88,2.88,0,0,0-.72.4,3.79,3.79,0,0,1,.53.14,27.81,27.81,0,0,1-2.44,2.87l-.75-.75.11-.41a.58.58,0,0,1-.24-.5,4.83,4.83,0,0,1,.28-1.64c.15-.48.36-.5.89-.31A.7.7,0,0,0,106.2,100.4ZM106,63.11a1.37,1.37,0,0,1,.8,0,.35.35,0,0,1,.07.62,1.85,1.85,0,0,0-.14.14C106.44,63.63,106.19,63.37,106,63.11Zm-5,22.21c.76-.45,1.32,0,1.9.28Zm.71,1a1.94,1.94,0,0,1-1.18.44c0-.18.07-.36.09-.54A3.92,3.92,0,0,0,101.66,86.32Zm3.4,19.47,1.37,1.36a9.71,9.71,0,0,1-2.55.86c-.76.16-1.47.32-1.55,1.29a.45.45,0,0,1-.36.39,4.13,4.13,0,0,1-2.06.17h-.09A30.85,30.85,0,0,0,105.06,105.79Zm.73-.73a29.93,29.93,0,0,0,2.58-3,1.65,1.65,0,0,1,.37,1c.37-.28.48-.21.6.36a5.84,5.84,0,0,0,.15.6,1,1,0,0,1-.51,1.35,8.44,8.44,0,0,0-1.49,1.15l-.18.13Zm2.55-5.94c.32-.17.62-.45.89-.25-.14.23-.28.46-.43.68Zm7.76,5.45c.57.28.94-.16,1.19-.58a18.87,18.87,0,0,0,1.6-3.92,7,7,0,0,0,.29-3.7c0-.18,0-.41-.22-.49s-.39.1-.52.25c-.3.32-.54.72-1,.79-.18,0-.2.16-.22.31s-.08.5-.12.75a2,2,0,0,1-2.29,1.65c-.31-.06-.33-.23-.18-.44a.78.78,0,0,1,.34-.25c1-.34,1.5-1.22,2.18-2a12.6,12.6,0,0,0,2.09-4.09,3.38,3.38,0,0,1,1.55-1.71,1,1,0,0,0,.41-1.11c0-.33.06-.41.35-.39,1.43.12,2.38-.83,3.35-1.62a1.35,1.35,0,0,0-.64-2.12,1.22,1.22,0,0,1-1-.81l-.24-.61h5.16a43.84,43.84,0,0,1-5.26,20.36,5.4,5.4,0,0,0,.1-.58,1.76,1.76,0,0,1,.35-.76,2.38,2.38,0,0,1,0-.26,7.81,7.81,0,0,0-.8-2.76.65.65,0,0,1-.29.13c-.42.09-.5.58-.65.93a12,12,0,0,1-1.78,3.06c-.34.4-.55.84-1.31.71-.45-.08-1,.43-1.53.72-1,.59-1,.6-1.8-.22l-1.17-1.11C114.72,104.5,115.36,104.2,116.1,104.57Zm14.36-48.28a6.63,6.63,0,0,1,.21-.88c.06-.2,0-.53.28-.56a.6.6,0,0,1,.42.1,5,5,0,0,0,.27-2.19A56.62,56.62,0,0,1,141,83.49H129.14a45,45,0,0,0-12.87-31l2.6-2.6L119,50a2.26,2.26,0,0,1,.86.32,4.61,4.61,0,0,1,1.59,1.64l0,0c.15-.16.27-.31.49-.06a8,8,0,0,0,2.58,1.45,13.17,13.17,0,0,1,2.63,2c.59.53,1.12,1.12,1.73,1.62A.94.94,0,0,0,130.46,56.29Zm-.4-5.8A18.85,18.85,0,0,0,126.92,49l.22.24-.08.1-1.85-1.13,0,0a8.81,8.81,0,0,1-1.56-1.41.65.65,0,0,1-.37-.2l-.63-.54,2-2A57.22,57.22,0,0,1,130.06,50.49ZM84.51,27a56.83,56.83,0,0,1,39.41,16.35l-2,2a5.84,5.84,0,0,1-1.58-2.11.64.64,0,0,0-.4-.36c-.52-.1-.67-.57-1-.89a2.19,2.19,0,0,1,1,.56l.36.29c-.49-.47-1-.95-1.46-1.46-1-1-3.43-4.45-4.92-4.38-1.09.06-2.16.12-3.23.11a3.8,3.8,0,0,1-1.59.48,2.85,2.85,0,0,0-.42,0c-.45.14-1,.13-1.22.67s.25.89.58,1.19c1,.95,1.83,2.12,2.95,3,.13.09.32.24.32.35-.06,1.16,1.24,1.6,1.39,2.66,0,.34.46.32.7.16,1.28-.81,2.15-.18,2.94.8,0,0,0,0,0,0,.19.22.54.41.47.73s-.51.07-.79.37a13,13,0,0,1,2,1.6l-2.52,2.52a45,45,0,0,0-31-12.88Zm0,12.87a44,44,0,0,1,30.31,12.57l-9.75,9.76a30.22,30.22,0,0,0-20.56-8.53Zm0,14.83a29.17,29.17,0,0,1,19.83,8.23l-.31.31a3,3,0,0,0-1.54-.09c.24.18.45.25.49.37a1.65,1.65,0,0,0,.27.5l-4.49,4.49a3.44,3.44,0,0,1-1-.61c-.39-.38-1.14,0-1.64-.43a1.29,1.29,0,0,0-.28-.12,3.08,3.08,0,0,1,.94-.64,2.51,2.51,0,0,0,1-2.57c-.08-.25-.18-.21-.35-.12a8.84,8.84,0,0,0-2.27,1.63c-.13.15-.06.35,0,.53,0,.74-.12.85-.85.68a11.57,11.57,0,0,0-2.41-.41c-.23,0-.34-.07-.38-.23a3.76,3.76,0,0,1-1.32,1,3.38,3.38,0,0,1-.49,1,16.46,16.46,0,0,0-5.13-1Zm0,13.59a15.73,15.73,0,0,1,5,1,4.64,4.64,0,0,0-1.94,1.36c-.58.52-1.11,1.2-2,1.2A1.11,1.11,0,0,1,85,71.8a5.54,5.54,0,0,1-.51-.33Zm0,7.94a2.37,2.37,0,0,0,.62-.64c.19-.32.9-.35,1.39-.47A2.21,2.21,0,0,0,88,73.52c0-.27,0-.43.34-.48s.51-.32.3-.49c-.48-.38-.09-.51.13-.69A1,1,0,0,0,89,70.69c-.14-.45-.48,0-.58-.24.19-.57.75-.74,1.12-1.13.34.13.67.27,1,.42l-.13.1s0,0,0,0a3.84,3.84,0,0,0,.65,3.3c.7.46,1,.35,1.3-.55.13.65.58.72,1,.78a.75.75,0,0,1,.37.15l-9.19,9.19Zm0,9,9.61,9.62a8,8,0,0,1,.31.86,15.6,15.6,0,0,1-9.92,4Zm0,15.49a16.49,16.49,0,0,0,4.24-.69,1.68,1.68,0,0,0,.41.65c.43.51.43.76,0,1.13a2.4,2.4,0,0,0-.33.5c.21.16.47.1.61.31-.21.14-.53.14-.65.43.86.1.86.11.44,1-.05.09-.07.17,0,.24.63.46.2,1.12.3,1.67.05.3-.18.23-.38.2-.54-.1-1.1-.17-1.65-.26a.67.67,0,0,0-.87.65c0,.44-.17.63-.45.69a2.65,2.65,0,0,1-.67,2.06c.17,0,.32.07.49.1.45.08.91.12,1.42.19a1.44,1.44,0,0,1-.92.51A2.21,2.21,0,0,0,85,111a.71.71,0,0,1-.47.3Zm0,19.91a29,29,0,0,0,4.35.4c.37,0,.53.09.61.31a14.05,14.05,0,0,1,2,.54c0-.06,0-.13,0-.2,0-.48.14-.63.63-.64a40.86,40.86,0,0,0,5.61-.57c.88-.14,1.1.17.77,1-.27.66-.17.88.5,1.08a7.77,7.77,0,0,0,1.16.26,4.1,4.1,0,0,1,2.31,1.26,43.77,43.77,0,0,1-17.9,4Zm0,8.52a44.85,44.85,0,0,0,18.2-4.08v0a5.72,5.72,0,0,0-.86,1.1c-.35.68-.24,1.1.47,1.39s1.54.51,2.51.82l-.64.18a6.81,6.81,0,0,1,1.5.68c.28,0,.56,0,.87,0a2.46,2.46,0,0,1,1.59.64,3,3,0,0,1,1.49.65,1.53,1.53,0,0,0,1.24.37,2,2,0,0,0,.68-.18,37.4,37.4,0,0,0,7.09-4.11,8.85,8.85,0,0,0,2.28-3,8.69,8.69,0,0,1,.77-1.28l2.23,2.23A56.83,56.83,0,0,1,84.51,141ZM27,84.51h4a8.36,8.36,0,0,0,.11,3.19,2.3,2.3,0,0,1,.06.28c.2.39.42.77.63,1.15a6.71,6.71,0,0,1,.75-2.78,2.49,2.49,0,0,1,1.06-.81c.14-.06.28.29.31.49.25,1.21,1.2,2.08,1.52,3.26.06.21.22.51.45.47s.24-.4.27-.64a3.76,3.76,0,0,1,.1-1.25c0-.09,0-.25.2-.22a.32.32,0,0,1,.2.18,5.6,5.6,0,0,1,.21.66,5.31,5.31,0,0,0,1.66,2.67c.23.23,0,.64.44.73.11-.51-.17-1.12.3-1.63a45,45,0,0,0,12.44,25.29l-8.37,8.37A56.78,56.78,0,0,1,27,84.51Zm46.2-1.82a6.3,6.3,0,0,0,1,.8H68.3a15.71,15.71,0,0,1,1-4.92c0,.1.07.21.11.32.26.86.62,1.54,1.64,1.62a.46.46,0,0,1,.41.27c-.15.15-.34.07-.5.07h-.29A10.31,10.31,0,0,1,73.21,82.69Zm9.55,1.82L72.54,94.73A15.67,15.67,0,0,1,68.3,84.51Zm-8.51-1c.08-.09.17-.18.3-.14.47.14.53-.14.53-.56a6.46,6.46,0,0,1,.17.7Zm8.51,0H77.65a1,1,0,0,1,.44-.46c.2-.12,1-.28.26-.81-.16-.12,0-.3.15-.39a3.29,3.29,0,0,0,.49-.26,1.33,1.33,0,0,0,.65-1.09c0-.37-.57-.09-.84-.24a.66.66,0,0,0-.34-.06c-1-.07-1.16-.28-.71-1.19,0-.11.12-.22.18-.33ZM78.6,77.88a1.61,1.61,0,0,1,.73-.31c.54-.06,1.54,1.08,1.27,1.49-.1.17-.27.28-.37.45ZM60.67,101.69a.78.78,0,0,1-.05-.14c-.2-.66-.59-1.2-.75-1.88.33.14.46,0,.63-.36a3,3,0,0,0,0-2.87c-1-2-.82-4-.57-6.13a8.19,8.19,0,0,0-.1-2.56,5.76,5.76,0,0,1,0-3.24h7.5a16.64,16.64,0,0,0,4.54,10.95l-8.89,8.88A30.09,30.09,0,0,1,60.67,101.69Zm1.54,3.38,0,0-.06-.11ZM70,72.56a2.74,2.74,0,0,0-.62,2c.07.59-.53,1-.67,1.58a.77.77,0,0,1-.37.54,10.64,10.64,0,0,1,0,1.13h.17a16.56,16.56,0,0,0-1.19,5.69H59.89a7.1,7.1,0,0,0-.36-.65,5.29,5.29,0,0,1,.56,0,3,3,0,0,1,.08-2c-.5-.15-.61-.54-.91-1.59a.43.43,0,0,1,.16-.49A1.83,1.83,0,0,0,60,77.12a3.87,3.87,0,0,1,.08-.9,1.28,1.28,0,0,1,2-1,1,1,0,0,0,1,0,28.57,28.57,0,0,0-.55,3.22.72.72,0,0,1,.05.21,4.68,4.68,0,0,1-.21,1.53c0,.1,0,.2,0,.3s-.09.31-.22.35a1.42,1.42,0,0,0-.07.22,4.53,4.53,0,0,1,2.47-1.31,6.92,6.92,0,0,1,.46-1,5.08,5.08,0,0,0,.83-2.55c0-.28,0-.6-.36-.83A3.74,3.74,0,0,1,64.72,78a8.88,8.88,0,0,1,.86-3.6,4.8,4.8,0,0,0,.74-2.21,6.56,6.56,0,0,1,1.25-2.77c.24-.34.62-.28,1-.13l1.53,1.54A1.82,1.82,0,0,1,70,72.56Zm-4.79-3.07a1.85,1.85,0,0,1-.6.67,4.55,4.55,0,0,0-1.75,2.21,1.29,1.29,0,0,1-1,.76c-.93.29-1.33,1.11-1.89,1.76a9.41,9.41,0,0,0-.62,1,.74.74,0,0,0,0,1,.58.58,0,0,1,0,.82c-.24.33-.51.24-.79.07a.92.92,0,0,0-.87,0c-.58.2-.77,0-.89-.58A12.57,12.57,0,0,0,56.19,75s0-.06,0-.1a29.33,29.33,0,0,1,6.78-11.25l3.52,3.51A24.86,24.86,0,0,0,65.17,69.49ZM46.43,102.81a40.69,40.69,0,0,0,3.64,2.91c.51.31,1,.81,1.6.21.17-.15.4.06.57.17a6.31,6.31,0,0,1,1.66,1.47c.82,1,1.77,1.92,2.63,2.9l.13.14-4.21,4.21a44.09,44.09,0,0,1-8.51-12.36c1.34,1.1,2.67,2.24,4,3.35C47.4,104.84,46.89,103.85,46.43,102.81Zm8.66-28c-.15-.48-.2-1-1-.73a3.94,3.94,0,0,1,.1-.47,18.8,18.8,0,0,1-2.26.81,1.2,1.2,0,0,1-.24,0c-.14.7-.25,1.42-.33,2.13a1,1,0,0,1-.45.82A3.26,3.26,0,0,0,49.46,80c-.09.59-.33.84-.86.87a8.24,8.24,0,0,1,0,1.32,1,1,0,0,1-.24.6h.17a1.3,1.3,0,0,1-.52.75h-.92a7.21,7.21,0,0,0-1.69-.42c-.12,0-.23-.13-.34-.2l0-.13h.75a16.46,16.46,0,0,1-4-2,.32.32,0,0,1-.33-.22,12.75,12.75,0,0,1-1.43-1.17A44,44,0,0,1,52.45,53.18l9.76,9.75A30.29,30.29,0,0,0,55.09,74.84ZM83.48,141a56.82,56.82,0,0,1-39.4-16.35l8.37-8.37a45,45,0,0,0,31,12.88Zm0-12.87a44,44,0,0,1-30.3-12.57l4.28-4.29a2.17,2.17,0,0,0,.87.27l-.24.25c.67.24,1.33.51,2,.79l1.17-1.19a.88.88,0,0,1,1.2-.23,9.25,9.25,0,0,0,2.16,1,4.15,4.15,0,0,1,1.07.4c1-.28,2.07-.65,2.32-1.22-1-.8-2.07-1.64-3-2.55-.31-.3-.43-.48-.27-.76a5,5,0,0,1-.84-1,5.35,5.35,0,0,1-.29-.59l-.32.29c-.15-.23-.31-.46-.47-.68l.18-.18A30.25,30.25,0,0,0,79.77,114a3,3,0,0,1-.34.4c-.84.78-.81,1.14,0,1.84a5,5,0,0,1,1,1.16l-.56-.11c.89,1.33,2,1.74,3.45,2.69l.07.06Zm0-16.75c-1.2,0-2.18.76-3.3,1.08a.39.39,0,0,0-.26.55,29.16,29.16,0,0,1-16.26-7.93l8.88-8.89a16.71,16.71,0,0,0,10.94,4.54Zm0-11.68a15.6,15.6,0,0,1-10.21-4.23L83.48,85.24Zm0-16.93-3-3c.53-.43,1.25-.25,1.86-.43a.56.56,0,0,1,.7.39c.13,0,.37.18.34,0a.4.4,0,0,1,.08-.28Zm0-3.87c-.16-.16-.29-.11-.42,0s-.36,0-.54-.07c.27-.24-.51-.63.13-.81.2-.31.23-.72.55-1l.28-.19Zm0-7.92a1.2,1.2,0,0,0-.3-.07,2.73,2.73,0,0,1,.3-.21Zm0-.46a4.13,4.13,0,0,1-1.43-.81.84.84,0,0,1-.28-.62c-.34.14-.47,0-.52-.53a16.36,16.36,0,0,1,2.23-.25Zm0-3.23a16,16,0,0,0-2.41.26,3.34,3.34,0,0,0-1.52-1.87,1.42,1.42,0,0,0-1.3-.25,1,1,0,0,1-.93-.12,4.63,4.63,0,0,0-1-.42,4.31,4.31,0,0,1-1.45.26,4.16,4.16,0,0,1,1.3.54A4.09,4.09,0,0,1,74,65.15a4.91,4.91,0,0,0-1.83.32.84.84,0,0,1-.62,0l.11.11c-.51.35-.85,0-1.19-.25s0-.27,0-.39l0-.06a4.55,4.55,0,0,0-3.17.79c-.15.21-.28.44-.43.66l-3.35-3.36a29.18,29.18,0,0,1,19.82-8.22Zm0-13.6a30.21,30.21,0,0,0-20.55,8.53l-9.75-9.76a43.92,43.92,0,0,1,30.3-12.57Zm0-26.67V38.85a45,45,0,0,0-31,12.88l-8.37-8.37A56.82,56.82,0,0,1,83.48,27ZM43.36,44.08l8.37,8.37a45,45,0,0,0-12.64,26.9l-.18-.13A1,1,0,0,1,37.75,79l0,.13a1.29,1.29,0,0,0,.41,1c.1.12.26.27.1.43s-.25,0-.35-.11c-.32-.26-.64-.46-.88.12-.38-.73-.32-1.51-.69-2.17-.06-.12-.13-.41-.29-.27-.56.5-.49,0-.59-.32-.25-.69-.5-.75-1-.23s-.89,1.07-1.76,1.13a.61.61,0,0,0-.32.13A9.46,9.46,0,0,1,31,82.75c.3.07.33.26.24.74H27A56.78,56.78,0,0,1,43.36,44.08Z"/><path class="cls-1" d="M122.18,62.25c.13.21.26.42.38.63a3.65,3.65,0,0,0-.78-1.27c-.43.18-.55.22-.61-.26h-.11a3.09,3.09,0,0,1-1,0c.21.3.54.52.65.92a2.36,2.36,0,0,1-1-1A2.68,2.68,0,0,1,119,61c.39.5.77,1,1.16,1.43C120.93,63.33,121.52,63.27,122.18,62.25Z"/><path class="cls-1" d="M128.25,106.5q-.06.77-.15,1.53a4.86,4.86,0,0,1-.77,1.85c-.46.77-.43.9.29,1.4a.53.53,0,0,1,.22.46c0,.36-.12.75.21,1.06.14.12,0,.25-.11.34l-.17.19a2.68,2.68,0,0,1,1.92,1.16c.65-.78,1.29-1.56,1.89-2.36-.16-.79-.38-1.6-.51-2.44,0-.2,0-.41-.08-.61l-.1.12c-.49-.89-.38-1.92-1.1-2.62a.23.23,0,0,1-.06-.19c.21-.49.08-.78-.47-.8A.91.91,0,0,0,128.25,106.5Z"/><path class="cls-1" d="M84,0a84,84,0,1,0,84,84A84.09,84.09,0,0,0,84,0Zm78.26,82q-2,3.08-4.07,6.15c-.15-2.27-.29-4.53-.44-6.79l4.08-6.15C162,77.42,162.11,79.69,162.26,82Zm-2.38-16.57c.47,2.22,1,4.43,1.42,6.65q-1.58,3.36-3.13,6.71c-.47-2.21-.95-4.43-1.42-6.64Zm-11,42.34L151,101.3c.79,2.35,1.56,4.7,2.35,7.06l-2.16,6.42Q150,111.26,148.84,107.72Zm1.07,9c-.92,2.06-1.84,4.11-2.75,6.17q-.84-3.63-1.67-7.26l2.76-6.17C148.8,111.9,149.36,114.32,149.91,116.74Zm.59-49.22,5.56,4.73c.47,2.22.95,4.43,1.42,6.65l-5.57-4.73Zm.64,32.08c.41-2.23.81-4.46,1.22-6.69l3.33,6.62q-.62,3.34-1.22,6.68Zm1.32-8.36q.1-3.39.23-6.8l4.25,6q-.12,3.39-.23,6.8Zm.21-8.64c-.15-2.27-.29-4.53-.44-6.79l4.82,5.55c.14,2.26.29,4.52.43,6.79Zm3.42-12.48L151.49,64l-.23-7.71,4.59,6.08Zm-1.52-18.2-3.49,1.72a4.33,4.33,0,0,1-1,.38,2.08,2.08,0,0,1-1-.08,2.38,2.38,0,0,1-1.42-1.3,2.88,2.88,0,0,1-.31-1,2.05,2.05,0,0,1,.1-1,2.3,2.3,0,0,1,.58-.9,2.69,2.69,0,0,1,.41-.29,5.56,5.56,0,0,1,.51-.27l3.49-1.73.73,1.48-3.49,1.72a4.19,4.19,0,0,0-.39.22,1.17,1.17,0,0,0-.3.28.72.72,0,0,0-.05.8.7.7,0,0,0,.66.45,1.29,1.29,0,0,0,.4-.08l.41-.18,3.49-1.73Zm-9.76-6.41-1,.19-.92-1.5L149.76,43l.68,1.11-4.16,5.56-.93-1.53.63-.75Zm8.36-4.21.15,2.38-.93.1-.33-2.32Zm-1.59.84.49.8-.55,1.88-.73-1.19L151,43l-.64-.07-.74-1.21Zm-10.35-5.56a3.22,3.22,0,0,1,2.5-.65,3.33,3.33,0,0,1,2.21,1.33,3.24,3.24,0,0,1,.5,3.18,2.68,2.68,0,0,1-.58,1l-1-1.38a1.56,1.56,0,0,0,0-1.92,1.63,1.63,0,0,0-1.21-.66,2.08,2.08,0,0,0-2.11,1.6,1.58,1.58,0,0,0,.29,1.36,1.65,1.65,0,0,0,1.81.58l1,1.38a3.33,3.33,0,0,1-4-1.07,3.34,3.34,0,0,1-.68-2.5A3.22,3.22,0,0,1,141.23,36.58Zm-3.4-8.3-1.1,4.63h0l2.8-2.91,1.12,1.12-4.56,4.56-1-1,1-4.51h0L133.39,33l-1.12-1.11,4.56-4.56ZM134,21.91l.92,2.2-.85.4-1.06-2.1Zm-.16,2.81-2.14,6.6-1.38-1.14.35-.92L129,27.84l-.86.5-1.36-1.13,6.11-3.32Zm-9.62-5.56a3.24,3.24,0,0,1,3,.42,3.34,3.34,0,0,1,1.46,2.14,3.2,3.2,0,0,1-.51,2.54,3.16,3.16,0,0,1-2.16,1.42,3.48,3.48,0,0,1-4-2.66,3,3,0,0,1,.45-2.49,3.93,3.93,0,0,1,1-1A3,3,0,0,1,124.26,19.16Zm-6-4.72,1.45.78-1.15,2.13,1.86,1,1.15-2.13L123,17l-3,5.68-1.45-.78,1.22-2.27-1.86-1-1.22,2.27-1.45-.78Zm-6.45-2.78.14,7L110.26,18l0-1-2.1-.79-.64.75-1.66-.62,4.69-5.13Zm-11.94-.21a3.67,3.67,0,0,1,.6-1.26A2.74,2.74,0,0,1,101,9.6,3.24,3.24,0,0,1,104,9a3.32,3.32,0,0,1,2.08,1.55,3.35,3.35,0,0,1-1.23,4.61A3.49,3.49,0,0,1,100.23,14,3,3,0,0,1,99.85,11.45Zm-6-4.35,1.62.26L95,9.75l2.09.34L97.5,7.7,99.13,8l-1,6.37-1.63-.26.42-2.55-2.09-.34-.41,2.55-1.63-.27Zm-6.63-.54,1.65.11-.21,2.9h0l2-2.77,1.72.12L90,10l2,3.39-1.92-.14-1.56-2.9h0l-.19,2.78L86.72,13Zm-8.44.14L80,6.63,83,12.92l-1.79.1-.37-.91-2.23.13-.29.95-1.76.11ZM69.57,7.83l2.14-.33a7,7,0,0,1,.83-.08,3,3,0,0,1,.76.06,2.75,2.75,0,0,1,1.38.78,3.35,3.35,0,0,1,.89,1.89,3.28,3.28,0,0,1-.46,2.45A3.07,3.07,0,0,1,73,13.83l-2.41.38-.39-2.55-.58.09-.22-1.43.58-.09Zm-9.64,2.5L62.41,14h0l0-4.43,2-.63,1.9,6.17-1.45.44-1.37-4.63h0l.11,5-1,.32L59.8,12.05v0l1.47,4.6-1.45.45L57.91,11Zm-5.09,8.88-1.63.69L53.06,13l1.2-.51,4.89,4.93-1.65.7-.65-.73-2.06.88Zm-1.17-9,.83.76-1.61,1.72-.71-.63Zm-7.49,6.16,1.15,2.13,1.86-1L48,15.36l1.45-.78,3.08,5.66L51.11,21l-1.23-2.27-1.86,1L49.25,22l-1.44.78-3.08-5.67Zm-5.65,3.49,1.61,2.42h0l-.09-3.43,1.44-.95v3.86l3.69,1.43-1.6,1.06-3-1.34h0l1.55,2.32-1.37.91-3.58-5.36ZM84,19.35A64.65,64.65,0,1,1,19.34,84,64.72,64.72,0,0,1,84,19.35Zm61.47,105.29-3.59,5.69q-.31-3.72-.64-7.43l3.59-5.69C145.05,119.68,145.25,122.16,145.47,124.64Zm-5.29-.24-.06,7.46L136,137.17c0-2.49,0-5,.05-7.46ZM135,131c-.35,2.46-.72,4.92-1.07,7.38L129.1,143l1.08-7.37Zm-11.34,9.72,5.39-3.88q-1,3.57-2.09,7.14l-5.39,3.88Q122.58,144.24,123.62,140.67Zm-4.26,7.88-5.73,3.32q1.38-3.44,2.75-6.89l5.72-3.32C121.19,144,120.27,146.25,119.36,148.55ZM45.9,141.66,51.62,145c.92,2.3,1.83,4.6,2.75,6.89l-5.72-3.32Q47.27,145.1,45.9,141.66Zm.57,6.15-5.39-3.88q-1-3.57-2.09-7.14l5.38,3.88ZM38.9,143l-4.79-4.64L33,131l4.79,4.64ZM32,137.17l-4.1-5.31q0-3.72-.05-7.46l4.1,5.31Q32,133.45,32,137.17ZM26.75,122.9l-.63,7.44-3.59-5.7.63-7.43C24.36,119.11,25.55,121,26.75,122.9ZM15.3,84.45c.08,2.27.16,4.53.23,6.8l-4.24,6q-.12-3.41-.23-6.8Zm-4.79,3.7c.14-2.26.29-4.53.43-6.79l4.82-5.55c-.15,2.27-.29,4.53-.44,6.79Zm5.12,4.77c.41,2.23.81,4.45,1.22,6.68-1.1,2.21-2.22,4.41-3.32,6.62-.41-2.23-.81-4.45-1.22-6.68C13.42,97.33,14.52,95.12,15.63,92.92ZM17,101.3l2.16,6.43-2.34,7q-1.08-3.21-2.17-6.42C15.43,106,16.21,103.65,17,101.3Zm2.76,8.18c.92,2.06,1.83,4.12,2.76,6.17-.56,2.42-1.11,4.85-1.67,7.27l-2.76-6.18C18.64,114.32,19.19,111.91,19.75,109.48Zm12.9-83.65A3.41,3.41,0,0,1,34.56,25a2.91,2.91,0,0,1,2,.42L35.2,26.62a1.54,1.54,0,0,0-1.62.32A1.64,1.64,0,0,0,33,28.2a1.86,1.86,0,0,0,.51,1.31,2,2,0,0,0,1.26.71,1.67,1.67,0,0,0,1.35-.43,1.76,1.76,0,0,0,.55-.83,1.27,1.27,0,0,0-.09-1l-1.44,1.27-.87-1,2.87-2.53a.68.68,0,0,1,.12.12l.11.12a3.46,3.46,0,0,1-2.75,5.75,3.25,3.25,0,0,1-2.34-1.14,3.08,3.08,0,0,1-.82-2.46A3.41,3.41,0,0,1,32.65,25.83ZM26.3,32.29l4.67.93v0L28,30.5,29,29.34l4.73,4.39-1,1.05-4.55-.87v0l2.9,2.63-1.07,1.16-4.73-4.39Zm-2,3.55a3.38,3.38,0,0,1,3.81,2.89,3.51,3.51,0,0,1-2.89,3.83A3.09,3.09,0,0,1,22.8,42a3.71,3.71,0,0,1-.95-1,2.82,2.82,0,0,1-.32-.78,3.25,3.25,0,0,1,.59-3A3.34,3.34,0,0,1,24.34,35.84ZM22,35.67l.43.83-2.05,1.15-.54-1ZM17.33,44.5l2.07,1.27L20.5,44,18.43,42.7l.86-1.4,5.51,3.36-.86,1.41-2.2-1.35-1.11,1.8,2.2,1.35L22,49.27l-5.5-3.37Zm-2.72,5c.09-.19.17-.34.24-.46a4.2,4.2,0,0,1,.29-.44,1.88,1.88,0,0,1,.78-.67,2.14,2.14,0,0,1,1.86.08,2.45,2.45,0,0,1,.75.57,1.87,1.87,0,0,1,.46.8,2,2,0,0,1,0,1,3.66,3.66,0,0,1-.36.94l-.32.64,1.81.9-.7,1.42L13.67,51.4ZM12.22,62.41l4.6-6.08L16.58,64,12,70.12Zm5.27,5.12q-.7,3.33-1.42,6.64l-5.56,4.74,1.41-6.65ZM8.11,65.39c1,2.24,2.08,4.47,3.13,6.71-.48,2.22-1,4.43-1.42,6.65L6.69,72C7.16,69.82,7.64,67.6,8.11,65.39ZM6.16,75.17l4.08,6.14c-.15,2.27-.29,4.53-.44,6.79L5.73,82C5.87,79.7,6,77.43,6.16,75.17ZM5.7,84.82l4.65,5.68c.07,2.27.16,4.53.23,6.8L5.93,91.62Q5.81,88.21,5.7,84.82Zm.49,10,5.42,4.9q.62,3.33,1.22,6.68l-5.42-4.89C7,99.24,6.6,97,6.19,94.78Zm1.72,9.82,6.07,4q1.08,3.21,2.17,6.43l-6.07-4ZM11,113.69l6.41,3.37,2.76,6.16-6.41-3.36Zm4.09,9,6.82,2.37,3.59,5.68-6.82-2.36C17.51,126.47,16.32,124.57,15.12,122.68ZM24.42,136l-4.1-5.31,7,1.68,4.1,5.31Zm2,2.29,7.17.62,4.79,4.65-7.17-.62Zm7,6.74,7.18-.45,5.38,3.88-7.18.45Zm7.7,5.38,7.1-1.17L54,152.51l-7.1,1.17Zm14.59,7.09L49.66,155l6.86-2.24,6.13,2.41Zm1-5.33-3.69-6.4,6.13,2.41,3.69,6.4Zm36.46,10.77-3.7,1.94S89,162.19,84,160.76c-5,1.43-5.57,4.07-5.57,4.07l-3.7-1.93a8.59,8.59,0,0,1,3.89-3.05c-7-.88-11.37-1.78-15.28-4.63a49.92,49.92,0,0,0,17.22,3,27.84,27.84,0,0,1,3.46.21,28.93,28.93,0,0,1,3.39-.21,49.66,49.66,0,0,0,17.23-3c-3.91,2.85-8.29,3.75-15.26,4.63A8.62,8.62,0,0,1,93.23,162.89Zm15.57-14.76,6.12-2.41-3.69,6.4-6.13,2.41Zm3.42,9.32-6.86-2.24,6.12-2.41,6.87,2.24Zm8.86-3.77-7.1-1.17,5.72-3.32,7.1,1.17Zm8-4.82-7.18-.45,5.38-3.88,7.18.45Zm7.62-6-7.16.63,4.79-4.65,7.17-.62Zm6.84-6.93-7,1.68,4.09-5.31,7-1.68Zm5.71-7.59-6.82,2.37,3.59-5.69,6.82-2.37C151.68,124.57,150.48,126.46,149.29,128.36Zm4.92-8.51-6.41,3.37c.92-2.06,1.83-4.12,2.75-6.17l6.42-3.37Zm3.71-8.83-6.07,4L154,108.6l6.07-4Zm2.67-9.56-5.43,4.89c.4-2.23.81-4.45,1.22-6.68l5.42-4.9Q161.18,98.12,160.59,101.46Zm-3.17-4.16c.07-2.27.15-4.54.22-6.81l4.65-5.68c-.07,2.27-.15,4.53-.23,6.8C160.51,93.51,159,95.4,157.42,97.3Z"/><path class="cls-1" d="M102.69,14.1a1.57,1.57,0,0,0,1.36-.24,1.92,1.92,0,0,0,.8-1.15,1.87,1.87,0,0,0-.12-1.4,1.59,1.59,0,0,0-1.08-.89,1.67,1.67,0,0,0-1.38.21,1.92,1.92,0,0,0-.8,1.15,2,2,0,0,0,.12,1.43A1.67,1.67,0,0,0,102.69,14.1Z"/><path class="cls-1" d="M124.35,24a1.6,1.6,0,0,0,1.36.22,1.92,1.92,0,0,0,1.13-.83,1.94,1.94,0,0,0,.35-1.36,1.63,1.63,0,0,0-.73-1.19,1.66,1.66,0,0,0-1.38-.25,2.07,2.07,0,0,0-1.48,2.21A1.66,1.66,0,0,0,124.35,24Z"/><path class="cls-1" d="M17.1,49.46a.63.63,0,0,0-.71,0,1.68,1.68,0,0,0-.45.61l-.27.55,1.37.68.3-.59a1.51,1.51,0,0,0,.19-.71A.67.67,0,0,0,17.1,49.46Z"/><polygon class="cls-1" points="117.86 72.71 95.29 72.71 95.29 50.13 72.71 50.13 72.71 72.71 50.13 72.71 50.13 95.29 72.71 95.29 72.71 117.87 95.29 117.87 95.29 95.29 117.86 95.29 117.86 72.71"/></svg>