<svg xmlns="http://www.w3.org/2000/svg" viewBox="0 0 35 35"><defs><style>.cls-1{fill:#17a6db;}.cls-2{fill:#fff;}</style></defs><title>footer-giokham</title><g id="Layer_2" data-name="Layer 2"><g id="Layer_1-2" data-name="Layer 1"><circle class="cls-1" cx="17.5" cy="17.5" r="17.5"/><path class="cls-2" d="M27.69,17.5A10.19,10.19,0,1,1,17.5,7.31,10.19,10.19,0,0,1,27.69,17.5Zm-7.15,4.09L21.69,20a.48.48,0,0,0-.1-.69L19,17.41V11.75a.5.5,0,0,0-.49-.5h-2a.5.5,0,0,0-.49.5v6.91a.48.48,0,0,0,.2.4l3.63,2.63A.49.49,0,0,0,20.54,21.59Z"/></g></g></svg>