<svg id="Layer_1" data-name="Layer 1" xmlns="http://www.w3.org/2000/svg" viewBox="0 0 77.7 77.7"><defs><style>.cls-1{fill:#17a6db;}</style></defs><path class="cls-1" d="M65.56,50.38a1.52,1.52,0,1,0,1.52,1.52,1.52,1.52,0,0,0-1.52-1.52Zm0,0"/><path class="cls-1" d="M59.49,50.38h-3a1.52,1.52,0,0,0,0,3h3a1.52,1.52,0,0,0,0-3Zm0,0"/><path class="cls-1" d="M35.81,38.24H31.26V33.69a1.52,1.52,0,0,0-1.52-1.52H23.67a1.52,1.52,0,0,0-1.51,1.52v4.55H17.6a1.52,1.52,0,0,0-1.51,1.52v6.07a1.52,1.52,0,0,0,1.51,1.52h4.56V51.9a1.52,1.52,0,0,0,1.51,1.52h6.07a1.52,1.52,0,0,0,1.52-1.52V47.35h4.55a1.52,1.52,0,0,0,1.52-1.52V39.76a1.52,1.52,0,0,0-1.52-1.52ZM34.3,44.31H29.74a1.52,1.52,0,0,0-1.51,1.52v4.55h-3V45.83a1.52,1.52,0,0,0-1.52-1.52H19.12v-3h4.55a1.52,1.52,0,0,0,1.52-1.52V35.21h3v4.55a1.52,1.52,0,0,0,1.51,1.52H34.3Zm0,0"/><path class="cls-1" d="M76.18,62.52H74.66V47.74a7.55,7.55,0,0,0-1.37-4.35L64.67,31.08a4.54,4.54,0,0,0-3.73-1.94h-9V26.71a4.55,4.55,0,0,0-4.55-4.55H34.3V16.69a7.59,7.59,0,0,0-15.18,0v5.47H7.59A4.55,4.55,0,0,0,3,26.71V62.52H1.52a1.52,1.52,0,0,0,0,3H8.61a11,11,0,0,0-.11,1.52,10.62,10.62,0,1,0,21.24,0,9.88,9.88,0,0,0-.11-1.54H52a11.28,11.28,0,0,0-.11,1.54,10.63,10.63,0,0,0,21.25,0A11,11,0,0,0,73,65.56h3.14a1.52,1.52,0,0,0,0-3Zm-54-45.83a4.55,4.55,0,1,1,9.1,0v5.47h-9.1Zm-3,58a7.59,7.59,0,1,1,7.59-7.58,7.6,7.6,0,0,1-7.59,7.58ZM48.87,62.52H28.72a10.62,10.62,0,0,0-19.19,0H6.07V26.71a1.52,1.52,0,0,1,1.52-1.52H47.35a1.53,1.53,0,0,1,1.52,1.52Zm3-30.35h9a1.52,1.52,0,0,1,1.25.65l8,11.49H54.05l3.48-3.48a1.52,1.52,0,0,0-2.15-2.14L51.9,42.17ZM62.52,74.66a7.59,7.59,0,1,1,7.16-10.11h0a7.47,7.47,0,0,1,.43,2.53,7.59,7.59,0,0,1-7.59,7.58Zm9.11-13a10.62,10.62,0,0,0-18.7.91h-1V47.35H71.61c0,.13,0,.26,0,.39Zm0,0"/><path class="cls-1" d="M62.52,62.52a4.56,4.56,0,1,0,4.56,4.56,4.56,4.56,0,0,0-4.56-4.56Zm0,6.07A1.52,1.52,0,1,1,64,67.08a1.52,1.52,0,0,1-1.52,1.51Zm0,0"/><path class="cls-1" d="M19.12,62.52a4.56,4.56,0,1,0,4.55,4.56,4.56,4.56,0,0,0-4.55-4.56Zm0,6.07a1.52,1.52,0,1,1,1.52-1.51,1.52,1.52,0,0,1-1.52,1.51Zm0,0"/><path class="cls-1" d="M26.71,0a1.52,1.52,0,0,0-1.52,1.52v3a1.52,1.52,0,1,0,3,0v-3A1.52,1.52,0,0,0,26.71,0Zm0,0"/><path class="cls-1" d="M14.57,15.18h-3a1.52,1.52,0,0,0,0,3h3a1.52,1.52,0,1,0,0-3Zm0,0"/><path class="cls-1" d="M41.88,15.18h-3a1.52,1.52,0,1,0,0,3h3a1.52,1.52,0,1,0,0-3Zm0,0"/><path class="cls-1" d="M38.51,4.89a1.51,1.51,0,0,0-2.14,0L34.22,7a1.52,1.52,0,0,0,2.15,2.14L38.51,7a1.51,1.51,0,0,0,0-2.15Zm0,0"/><path class="cls-1" d="M19.2,7,17.05,4.89A1.52,1.52,0,1,0,14.91,7l2.14,2.14A1.52,1.52,0,0,0,19.2,7Zm0,0"/></svg>