<svg id="Layer_1" data-name="Layer 1" xmlns="http://www.w3.org/2000/svg" viewBox="0 0 77.7 77.7"><defs><style>.cls-1{fill:#17a6db;}</style></defs><path class="cls-1" d="M46.37,62.33H40.48a1.52,1.52,0,1,0,0,3h5.89a1.65,1.65,0,1,1,0,3.3H30.52a8,8,0,0,1-6.15-2.88l-3.79-4.56a11,11,0,0,0-8.16-4v-9H18a10.49,10.49,0,0,1,7.34,3l8.19,7.89a1.5,1.5,0,0,1-2.05,2.18l-6.42-5.89A1.52,1.52,0,0,0,23,57.68l6.42,5.88a4.49,4.49,0,0,0,3.06,1.19A4.52,4.52,0,0,0,35.64,57l-8.18-7.9A13.55,13.55,0,0,0,18,45.26H12.13A3.76,3.76,0,0,0,8.66,43H1.52A1.52,1.52,0,0,0,0,44.47v11.1a1.51,1.51,0,0,0,1.52,1.51A1.51,1.51,0,0,0,3,55.57V46H8.66a.73.73,0,0,1,.73.73V58.88a.73.73,0,0,1-.73.72H7.08a1.52,1.52,0,0,0,0,3H8.66a3.77,3.77,0,0,0,3.49-2.36,8,8,0,0,1,6.1,2.88L22,67.72a11,11,0,0,0,8.48,4H46.37a4.69,4.69,0,0,0,0-9.37Zm0,0"/><path class="cls-1" d="M76.18,20a1.52,1.52,0,0,0-1.52,1.52V31.71H69a.73.73,0,0,1-.73-.73V18.82A.73.73,0,0,1,69,18.1H70.5a1.52,1.52,0,1,0,0-3H69a3.77,3.77,0,0,0-3.49,2.36,8,8,0,0,1-6.1-2.88L55.66,10a11,11,0,0,0-8.48-4H31.33a4.69,4.69,0,0,0,0,9.37h6.48a1.52,1.52,0,1,0,0-3H31.33a1.65,1.65,0,1,1,0-3.3H47.18a8,8,0,0,1,6.15,2.88l3.79,4.56a11,11,0,0,0,8.16,4v9H59.69a10.58,10.58,0,0,1-7.35-3l-8.18-7.9a1.49,1.49,0,0,1,2.05-2.17l6.42,5.89a1.52,1.52,0,0,0,2-2.24l-6.42-5.88a4.52,4.52,0,0,0-6.2,6.59l8.18,7.89a13.51,13.51,0,0,0,9.45,3.82h5.88A3.78,3.78,0,0,0,69,34.75h7.14a1.52,1.52,0,0,0,1.52-1.52V21.54A1.52,1.52,0,0,0,76.18,20Zm0,0"/><path class="cls-1" d="M49,57.61a1.53,1.53,0,1,0-1.4,2.15,1.62,1.62,0,0,0,.61-.12l0,0a1.51,1.51,0,0,0,.76-2Zm0,0"/><path class="cls-1" d="M52.76,55.06a1.52,1.52,0,0,0-2.45,1.8,1.52,1.52,0,0,0,2.12.33l0,0a1.5,1.5,0,0,0,.31-2.11Zm0,0"/><path class="cls-1" d="M44.75,59.32a1.52,1.52,0,1,0-1.5,1.83,1.43,1.43,0,0,0,.29,0h0a1.52,1.52,0,0,0,1.17-1.8Zm0,0"/><path class="cls-1" d="M55.93,51.76a1.52,1.52,0,0,0-2.14.11l0,0a1.51,1.51,0,0,0,.16,2.14,1.53,1.53,0,0,0,1,.36,1.52,1.52,0,0,0,1-2.65ZM55.09,53l-.17-.16.18.17Zm0,0"/><path class="cls-1" d="M59.8,43.54a1.52,1.52,0,0,0-.89,2.91,1.75,1.75,0,0,0,.44.07,1.51,1.51,0,0,0,1.45-1.08v0a1.51,1.51,0,0,0-1-1.88Zm0,0"/><path class="cls-1" d="M61.74,35.7a.43.43,0,0,0,0-.05,1.52,1.52,0,1,0-1.49,1.84l.27,0a1.51,1.51,0,0,0,1.23-1.76Zm0,0"/><path class="cls-1" d="M60.35,39a1.52,1.52,0,0,0-1.65,1.37v.06A1.52,1.52,0,0,0,60.13,42h.09a1.52,1.52,0,0,0,.13-3Zm0,0"/><path class="cls-1" d="M58.31,47.85a1.53,1.53,0,0,0-2.07.57l0,0a1.53,1.53,0,0,0,.61,2.07,1.58,1.58,0,0,0,.73.18,1.49,1.49,0,0,0,1.32-.79l-1.32-.75,1.32.75a1.51,1.51,0,0,0-.57-2.07Zm0,0"/><path class="cls-1" d="M30.79,19a1.5,1.5,0,0,0-2-.67h0a1.52,1.52,0,1,0,2.05.67Zm0,0"/><path class="cls-1" d="M35.18,17.69a1.52,1.52,0,0,0-1.83-1.12h0a1.52,1.52,0,0,0,.37,3,1.58,1.58,0,0,0,.38-.05,1.51,1.51,0,0,0,1.12-1.83Zm0,0"/><path class="cls-1" d="M26.78,21.14a1.52,1.52,0,0,0-2.13-.23l.94,1.19-.95-1.18a1.52,1.52,0,0,0,1.89,2.37l0,0a1.52,1.52,0,0,0,.23-2.13Zm0,0"/><path class="cls-1" d="M18.69,31.94A1.52,1.52,0,0,0,16.82,33s0,0,0,.06a1.51,1.51,0,0,0,1.12,1.83,1.47,1.47,0,0,0,.36,0,1.52,1.52,0,0,0,.4-3Zm0,0"/><path class="cls-1" d="M17.72,36.4a1.51,1.51,0,0,0-1.6,1.42v.06a1.51,1.51,0,0,0,1.47,1.56h0a1.52,1.52,0,0,0,.09-3Zm0,0"/><path class="cls-1" d="M20.6,27.79a1.52,1.52,0,0,0-2.05.64l0,.05a1.51,1.51,0,0,0,.7,2,1.43,1.43,0,0,0,.66.16,1.53,1.53,0,0,0,.72-2.88Zm0,0"/><path class="cls-1" d="M23.34,24.14a1.52,1.52,0,0,0-2.14.2l0,0a1.52,1.52,0,1,0,2.17-.24Zm0,0"/><path class="cls-1" d="M19.44,42.19a1.52,1.52,0,0,0-3,.54h0A1.51,1.51,0,0,0,17.94,44l.27,0a1.53,1.53,0,0,0,1.23-1.77Zm0,0"/><path class="cls-1" d="M44.06,30.67A7,7,0,0,0,39,32.86a7,7,0,1,0-9.62,10.27l0,0L38,50a1.5,1.5,0,0,0,.94.33A1.55,1.55,0,0,0,39.9,50l9-7.18.13-.11a7,7,0,0,0-5-12ZM47,40.5l-8,6.38-7.69-6.09a4,4,0,1,1,6.29-4.6,1.52,1.52,0,0,0,2.8,0A4,4,0,1,1,47,40.5Zm0,0"/><path class="cls-1" d="M3,61.12a1.51,1.51,0,1,1-1.51-1.51A1.51,1.51,0,0,1,3,61.12Zm0,0"/><path class="cls-1" d="M77.69,16.58a1.51,1.51,0,1,1-1.51-1.51,1.51,1.51,0,0,1,1.51,1.51Zm0,0"/></svg>