<svg id="Layer_1" data-name="Layer 1" xmlns="http://www.w3.org/2000/svg" viewBox="0 0 77.7 77.7"><defs><style>.cls-1{fill:#17a6db;}</style></defs><path class="cls-1" d="M13.83,60.53A1.52,1.52,0,1,1,12.32,59a1.52,1.52,0,0,1,1.51,1.52Zm0,0"/><path class="cls-1" d="M70,14.11H61.06A8.27,8.27,0,0,0,55.75,16V11.46A10.82,10.82,0,0,0,44.94.65H34.82A1.52,1.52,0,0,0,33.3,2.17V6.33A10.82,10.82,0,0,0,44.11,17.14h8.61V32.52c-.4,0-.81,0-1.21,0a18.72,18.72,0,0,0-11,3.55,1.52,1.52,0,1,0,1.78,2.46A15.87,15.87,0,0,1,53.9,35.7l.2,0a15.86,15.86,0,0,1,11.27,7.95A1.52,1.52,0,1,0,68,42.22,18.88,18.88,0,0,0,55.75,33V28.06h7.41a8.36,8.36,0,0,0,8.35-8.34v-4.1A1.52,1.52,0,0,0,70,14.11Zm-17.27,0H44.11a7.78,7.78,0,0,1-7.77-7.78V3.68h8.6a7.79,7.79,0,0,1,7.78,7.78Zm15.75,5.61A5.31,5.31,0,0,1,63.16,25H55.75V22.45a5.31,5.31,0,0,1,5.31-5.31h7.41Zm0,0"/><path class="cls-1" d="M77.19,49.9a6,6,0,0,0-7.84-3h0l-9.92,4.57a1.52,1.52,0,0,0,1.27,2.76l9.91-4.57A2.92,2.92,0,0,1,72.93,55l-20.29,9a11.77,11.77,0,0,1-10-.22L35.2,60a14.8,14.8,0,0,0-12.59-.29l-.15.07L16.91,47.21l7.71-3.4a15.34,15.34,0,0,1,11.53-.37l14.94,5.49A2.69,2.69,0,0,1,49.3,54L37.75,50.1a1.51,1.51,0,1,0-1,2.87l11.55,3.91a5.51,5.51,0,0,0,1.82.3,5.73,5.73,0,0,0,2-11.1L37.2,40.59A18.39,18.39,0,0,0,23.39,41l-7.75,3.43A3.86,3.86,0,0,0,10.87,43l-10,4.37A1.51,1.51,0,0,0,0,48.8V75.53a1.53,1.53,0,0,0,.72,1.3,1.53,1.53,0,0,0,.8.22,1.48,1.48,0,0,0,.68-.16l19.34-9.77a3.86,3.86,0,0,0,2-2.11,3.82,3.82,0,0,0,.11-2.43l.18-.08a11.76,11.76,0,0,1,10,.23l7.43,3.69a14.77,14.77,0,0,0,12.58.28l20.29-9a6,6,0,0,0,3-7.84Zm-56.48,14a.82.82,0,0,1-.43.45l-.07,0L3,73.07V66.42l4.48-2.2A1.51,1.51,0,1,0,6.19,61.5L3,63V49.79l9.05-4a.79.79,0,0,1,.62,0,.81.81,0,0,1,.45.42L20.3,62.4h0l.39.88a.83.83,0,0,1,0,.62Zm0,0"/></svg>