<svg id="Layer_1" data-name="Layer 1" xmlns="http://www.w3.org/2000/svg" xmlns:xlink="http://www.w3.org/1999/xlink" viewBox="0 0 655.19 168"><defs><style>.cls-1{fill:#33cc9d;}.cls-2{fill:#777;}.cls-3{fill:url(#radial-gradient);}.cls-4{fill:url(#radial-gradient-2);}.cls-5{fill:url(#radial-gradient-3);}.cls-6{fill:url(#radial-gradient-4);}.cls-7{fill:url(#radial-gradient-5);}.cls-8{fill:url(#radial-gradient-6);}.cls-9{fill:#007dd1;}.cls-10{fill:#fff;}</style><radialGradient id="radial-gradient" cx="100.88" cy="-0.94" r="47.66" gradientUnits="userSpaceOnUse"><stop offset="0" stop-color="#65c19b"/><stop offset="1" stop-color="#01a38e"/></radialGradient><radialGradient id="radial-gradient-2" cx="101.35" cy="-0.95" r="48.21" xlink:href="#radial-gradient"/><radialGradient id="radial-gradient-3" cx="101.08" cy="-0.94" r="47.89" xlink:href="#radial-gradient"/><radialGradient id="radial-gradient-4" cx="101.46" cy="-1.02" r="48.4" xlink:href="#radial-gradient"/><radialGradient id="radial-gradient-5" cx="58.94" cy="14.07" r="0.05" xlink:href="#radial-gradient"/><radialGradient id="radial-gradient-6" cx="107.71" cy="-1.01" r="54.81" xlink:href="#radial-gradient"/></defs><path class="cls-1" d="M230.31,151.57v-24.4h-20v24.4H194.77v-61h15.58v22.95h20V90.54h15.58v61Z"/><path class="cls-1" d="M309.21,143.68a33.17,33.17,0,0,1-45.37.16,29.11,29.11,0,0,1-9.58-22,35.77,35.77,0,0,1,2.38-13,27.9,27.9,0,0,1,4-6.85q9.51-12.51,25.81-12.52a31.45,31.45,0,0,1,22.78,9.1,30.17,30.17,0,0,1,9.42,22.54A30.35,30.35,0,0,1,309.21,143.68Zm-10.67-35.1a15.31,15.31,0,0,0-12-5.48,15.49,15.49,0,0,0-12.08,5.31,18,18,0,0,0-4.59,12.48,18.45,18.45,0,0,0,4.63,12.72,15.53,15.53,0,0,0,12.2,5.44,15.06,15.06,0,0,0,11.87-5.48,19.56,19.56,0,0,0,0-25Z"/><path class="cls-1" d="M366.37,151.57l-3-8.82H342.22L339,151.57H322.25l24.48-61H359l24.27,61Zm-6.92-64-20.37-8.89,4.19-9.66,20,10.54ZM353,109.54h-.24l-6.28,20.85h12.8Z"/><path class="cls-1" d="M427.44,151.57l-23.23-37.12-.2.08.44,37H389.52v-61H403l23.59,38.36.16-.16L426,90.54H441v61Z"/><path class="cls-1" d="M538,128.74a30.63,30.63,0,0,1-11.23,17.39,32.61,32.61,0,0,1-42.34-2.57,31.78,31.78,0,0,1-.08-45.09A31.25,31.25,0,0,1,507,89.41q17.38,0,26.85,14.34a25.55,25.55,0,0,1,4.14,10H521.67q-4.06-10.64-14.73-10.63a15.08,15.08,0,0,0-11.88,5.36,18.36,18.36,0,0,0-4.46,12.43,18.8,18.8,0,0,0,4.46,12.6,15,15,0,0,0,12,5.56q10,0,14.65-10.31Z"/><path class="cls-1" d="M585.39,151.57l-3-8.82H561.24L558,151.57H541.28l24.47-61H578l24.27,61Zm-9.74-66.38-3.78-4.75-3.79,4.75H554.72L567.56,71.5h8.9l12.4,13.69Zm9.14-12.12-20.37-8.89,4.19-9.67,20,10.55ZM572,109.54h-.24l-6.28,20.85h12.8Z"/><path class="cls-1" d="M655.19,127.41a40.26,40.26,0,0,1-1,10.11,19.78,19.78,0,0,1-5,8.61q-6.5,6.6-17.07,6.6a29.21,29.21,0,0,1-9.5-1.48,19.5,19.5,0,0,1-8-5,20.69,20.69,0,0,1-5.16-8.69,28.81,28.81,0,0,1-.8-4.71c-.11-1.4-.16-3.19-.16-5.4V90.54H624v36.87a30.75,30.75,0,0,0,.24,4.15,12.08,12.08,0,0,0,1.09,3.74q1.85,3.75,6.6,3.75t6.6-3.66a12.82,12.82,0,0,0,1-3.71c.11-1.07.17-2.49.17-4.27V90.54h15.57Z"/><path class="cls-2" d="M210.29,39.05a9.3,9.3,0,0,1-3.59,1.39c-.59.1-1.23.18-1.93.23s-1.21.06-2,.06h-5.15V52.37h-2.9V23.43h8q1.11,0,2,.06c.7.05,1.34.13,1.93.23a9.64,9.64,0,0,1,3.59,1.41,7.92,7.92,0,0,1,3.58,7A8,8,0,0,1,210.29,39.05Zm-2.66-12.24a7.15,7.15,0,0,0-2.42-.67L204,26.07h-6.3v12H204l1.24-.07a7.38,7.38,0,0,0,2.42-.65A5.46,5.46,0,0,0,211,32.08,5.43,5.43,0,0,0,207.63,26.81Z"/><path class="cls-2" d="M235.81,52.37V38.8h-15V52.37h-2.9V23.43h2.9V36.18h15V23.43h2.88V52.37Z"/><path class="cls-2" d="M269.38,48.53a15.41,15.41,0,0,1-21.44,0,14,14,0,0,1-4.6-10.51,14.52,14.52,0,0,1,4.49-10.73,15.49,15.49,0,0,1,21.57,0,14.62,14.62,0,0,1,0,21.24Zm-2-19.33a12.31,12.31,0,0,0-17.54,0,12.16,12.16,0,0,0-3.6,8.82,11.58,11.58,0,0,0,3.7,8.6,12.34,12.34,0,0,0,17.42,0,11.71,11.71,0,0,0,3.69-8.7A11.86,11.86,0,0,0,267.39,29.2Zm-5.67-7.41L254,17.61l1.27-2.34L263,19.54Z"/><path class="cls-2" d="M298.68,52.37,281.52,26.93h-.08V52.37h-2.9V23.43h3.91l16.15,24h.08v-24h2.88V52.37Z"/><path class="cls-2" d="M336.89,39.09A14.3,14.3,0,0,1,332,49a15,15,0,0,1-10.36,3.94,15.26,15.26,0,0,1-10.84-4.36,14.48,14.48,0,0,1,0-21.28,15.81,15.81,0,0,1,22.66,1,10.31,10.31,0,0,1,1.87,2.91h-3.36A10.76,10.76,0,0,0,327.48,27a12.5,12.5,0,0,0-5.88-1.47,12.3,12.3,0,0,0-8.88,3.61A11.8,11.8,0,0,0,309,37.94a11.64,11.64,0,0,0,3.78,8.78,12.61,12.61,0,0,0,8.95,3.53A12.33,12.33,0,0,0,329,47.87a10.75,10.75,0,0,0,4.42-6.17H317.27V39.09Z"/><path class="cls-2" d="M368.88,52.37l-9.66-12.54-3.74,4.6v7.94h-2.9V23.43h2.9V40.06h.07L368.8,23.43h3.7L361.05,37.56,372.5,52.37Z"/><path class="cls-2" d="M393.35,52.37V38.8h-15V52.37h-2.9V23.43h2.9V36.18h15V23.43h2.88V52.37Z"/><path class="cls-2" d="M424.53,52.37l-4.2-9.73H406.9l-4.22,9.73h-3L412,23.43h3.25l12.42,28.94ZM413.65,26.74,408,40h11.23Zm-3-4.95-1.29-2.25,7.78-4.27,1.25,2.34Z"/><path class="cls-2" d="M458.16,52.37V26.6h-.07L447.26,52.37H444.8L434.06,26.6H434V52.37h-2.9V23.43h4.45L446,48.08,456.6,23.43h4.46V52.37Z"/><path class="cls-2" d="M477.75,36.18V23.43h8.43a21,21,0,0,1,4.89.58,14.48,14.48,0,0,1,4.52,1.81A13.56,13.56,0,0,1,502.18,38a13.54,13.54,0,0,1-6.59,12,15,15,0,0,1-4.54,1.84,21.39,21.39,0,0,1-4.87.55h-8.43V38.8h-2.33V36.18Zm2.88,2.62v11h4.81c.95,0,1.78,0,2.48-.07a16.12,16.12,0,0,0,2.37-.33,11.49,11.49,0,0,0,4.44-1.94,10.47,10.47,0,0,0,3.4-4.24,12.75,12.75,0,0,0,1.15-5.31,11,11,0,0,0-4.93-9.58,11.76,11.76,0,0,0-4.56-1.85,20.7,20.7,0,0,0-2.46-.3q-1.05-.06-2.52-.06h-4.18V36.18h8.78V38.8Z"/><path class="cls-2" d="M529.26,52.37l-4.2-9.73H511.63l-4.22,9.73h-3l12.35-28.94H520l12.42,28.94ZM518.38,26.74,512.71,40h11.23Z"/><path class="cls-2" d="M563.12,52.37l-9.66-12.54-3.74,4.6v7.94h-2.9V23.43h2.9V40.06h.08L563,23.43h3.71L555.3,37.56l11.45,14.81Z"/><path class="cls-2" d="M587.59,52.37V38.8h-15V52.37h-2.91V23.43h2.91V36.18h15V23.43h2.88V52.37Z"/><path class="cls-2" d="M621.16,48.53a15.4,15.4,0,0,1-21.43,0,14,14,0,0,1-4.6-10.51,14.51,14.51,0,0,1,4.48-10.73,15.49,15.49,0,0,1,21.57,0,14.62,14.62,0,0,1,0,21.24Zm-2-19.33a12,12,0,0,0-8.76-3.65,11.84,11.84,0,0,0-8.78,3.69A12.12,12.12,0,0,0,598,38.06a11.58,11.58,0,0,0,3.7,8.6,12.35,12.35,0,0,0,17.43,0,11.74,11.74,0,0,0,3.68-8.7A11.89,11.89,0,0,0,619.18,29.2Z"/><path class="cls-2" d="M652.05,52.37l-4.2-9.73H634.41l-4.22,9.73h-3l12.35-28.94h3.25l12.42,28.94ZM641.17,26.74,635.5,40h11.22Z"/><path class="cls-3" d="M63.63,11.62c0,.05.09.13.11.09a1.58,1.58,0,0,0,.12-.53s0-.1,0-.14.29-.27.18-.28-.2.37-.29.27v0a2.13,2.13,0,0,1,0,.25C63.72,11.39,63.62,11.5,63.63,11.62Z"/><path class="cls-4" d="M63.71,10.68c0-.07-.05.06-.08.17l.12.16A.62.62,0,0,0,63.71,10.68Z"/><path class="cls-5" d="M62.29,11a1.62,1.62,0,0,0,.08-.69c-.11.19-.32.35-.35.58S62.24,11.08,62.29,11Z"/><path class="cls-6" d="M64.46,5.92l0,.11s0,0,0,0S64.47,5.88,64.46,5.92Z"/><path class="cls-7" d="M58.94,14.14h0A.66.66,0,0,1,59,14a.13.13,0,0,0,0,.06S58.94,14.11,58.94,14.14Z"/><path class="cls-8" d="M59.3,12.81a1.23,1.23,0,0,0,0-.19h0v.11S59.3,12.79,59.3,12.81Z"/><path class="cls-1" d="M84,0a84,84,0,1,0,84,84A84.09,84.09,0,0,0,84,0Zm0,148.65A64.65,64.65,0,1,1,148.65,84,64.73,64.73,0,0,1,84,148.65Z"/><path class="cls-1" d="M84,26a58,58,0,1,0,58,58A58.09,58.09,0,0,0,84,26Zm.51,94.66a29,29,0,0,0,4.35.4c.37,0,.53.09.61.31a14.05,14.05,0,0,1,2,.54c0-.06,0-.13,0-.2,0-.48.14-.63.63-.64a40.86,40.86,0,0,0,5.61-.57c.88-.14,1.1.17.77,1-.27.66-.17.88.5,1.08a7.77,7.77,0,0,0,1.16.26,4.1,4.1,0,0,1,2.31,1.26,43.77,43.77,0,0,1-17.9,4ZM62.19,105.09l-.06-.11.08.09Zm26.4-32.54c-.48-.38-.09-.51.13-.69A1,1,0,0,0,89,70.69c-.14-.45-.48,0-.58-.24.19-.57.75-.74,1.12-1.13.34.13.67.27,1,.42l-.13.1s0,0,0,0a3.84,3.84,0,0,0,.65,3.3c.7.46,1,.35,1.3-.55.13.65.58.72,1,.78a.75.75,0,0,1,.37.15l-9.19,9.19V76.24a2.37,2.37,0,0,0,.62-.64c.19-.32.9-.35,1.39-.47A2.21,2.21,0,0,0,88,73.52c0-.27,0-.43.34-.48S88.8,72.72,88.59,72.55Zm16-8.47h0c.14-.06.29,0,.38-.23,0,0,0-.08,0-.13l.07-.06c.29.31.59.63.87,1-.24.24-.47.48-.72.72a1.39,1.39,0,0,1-1,.29c-1.09,0-1.47.93-2.11,1.52-.11.11-.06.31,0,.47s.51.28.28.53-.6.8-1.09,1a2,2,0,0,1-1.6-.06Zm4.16,35.47-.46-.43c.32-.17.62-.45.89-.25C109.09,99.1,109,99.33,108.8,99.55ZM96.41,95.68c.21-.13.45-.2.71.17.42.61.94.59,1.43,0,.25-.29.44-.69,1-.58a1.37,1.37,0,0,1-.68.81c-.48.27-.62.61-.15,1,.25.23.52.44-.11.54a.37.37,0,0,0-.11,0ZM97.79,91c.06-.14.19-.11.29-.13h0l-.12.24Zm5.06-5.41-1.9-.28C101.71,84.87,102.27,85.29,102.85,85.6Zm-1.19.72a1.94,1.94,0,0,1-1.18.44c0-.18.07-.36.09-.54A3.92,3.92,0,0,0,101.66,86.32ZM99.4,91.2a2.66,2.66,0,0,1-.49.35c.15-.29.29-.58.42-.88C99.49,90.8,99.83,90.88,99.4,91.2Zm4.91,12.38.11-.41a.58.58,0,0,1-.24-.5,4.83,4.83,0,0,1,.28-1.64c.15-.48.36-.5.89-.31a.7.7,0,0,0,.85-.32c.26-.46.44-.29.7,0a5.18,5.18,0,0,0,.79.54,2.88,2.88,0,0,0-.72.4,3.79,3.79,0,0,1,.53.14,27.81,27.81,0,0,1-2.44,2.87ZM94,74.72a.41.41,0,0,0,.24.08c.54,0,.51.36.49.72a1.91,1.91,0,0,0,.1.82c.33.78.53.84,1.18.3.29-.24.48-.29.7.07s.26.38.79.1c-.21.93-1.53,1.21-1.18,2.3.75-.11.79,0,.73,1,0,.49-.19.63-.69.64a2.23,2.23,0,0,0-2,1.16c-.16.3-.57.27-.78.64,1.18-.66,2,.26,3,.5a3.36,3.36,0,0,1,1.27.43H85.24Zm5.1,9.79a.59.59,0,0,1-.3.06l.83.42c-.09,0-.13.07-.17.06-.32-.09-.79-.36-.94,0s.4.46.67.62a3.72,3.72,0,0,0,.39.21,16.75,16.75,0,0,1-.38,2,.74.74,0,0,0-.14.22c-.16.42-.48.54-.87.17a1.39,1.39,0,0,0-.36-.2.25.25,0,0,0-.31.06c-.12.18.06.24.17.3a4.75,4.75,0,0,1,.83.51l.29.22c-.06.18-.12.35-.19.52a.87.87,0,0,0-.69-.4,21.05,21.05,0,0,0-3.36-.36c-.08,0-.13-.19-.32-.12a1.19,1.19,0,0,1-.13,1.29A1.27,1.27,0,0,0,94,91a17.69,17.69,0,0,1-.11,2.18l-8.64-8.64Zm-5,10.34a8,8,0,0,1,.31.86,15.6,15.6,0,0,1-9.92,4V85.23Zm.62,2c.13.52.24,1,.35,1.45a2.86,2.86,0,0,1,.07.86l.35.58c.25.43.45.44.78,0s.61-.8.35-1.37a.58.58,0,0,1,0-.48,1.19,1.19,0,0,0,.12-.38l1.63,1.62c0,.33-.22.47-.8.7a.88.88,0,0,0-.41.26c-.49.69-1.3.48-2,.65a.39.39,0,0,1-.5-.37,3,3,0,0,1-.51.55c-.12.3-.48.51-.87.8a16.34,16.34,0,0,1-1.9,1.54,2.48,2.48,0,0,0,0-2,2.44,2.44,0,0,1-.74-.49c-.36-.33-.72-.69-1.07-1.06A16.85,16.85,0,0,0,94.74,96.8Zm2.23,13a1.15,1.15,0,0,1,.31-.73,5.68,5.68,0,0,1-1-.72l-1.05-.1a1.14,1.14,0,0,1-1-.92,16.8,16.8,0,0,1-2.25.2c.33-.23.65-.37.77-.79a.48.48,0,0,1,.6-.35,1.83,1.83,0,0,0,1.5-.4.85.85,0,0,1,.93-.13l.66-.25a.87.87,0,0,1,1.15.56c.32,0,.66,0,1,0a1,1,0,0,1,.14-.31,2.71,2.71,0,0,1-1.55-.54c-.12-.1-.2-.2-.12-.35s.16-.21.29-.16a14.85,14.85,0,0,0,3,.55.33.33,0,0,1,.15.1,7.32,7.32,0,0,0,3.82-.45l0,0a29.14,29.14,0,0,1-6.62,4.81A2.41,2.41,0,0,1,97,109.82Zm8.09-4,1.37,1.36a9.71,9.71,0,0,1-2.55.86c-.76.16-1.47.32-1.55,1.29a.45.45,0,0,1-.36.39,4.13,4.13,0,0,1-2.06.17h-.09A30.85,30.85,0,0,0,105.06,105.79Zm5.6.34c-.17,0-.32-1-.17-1.18a.64.64,0,0,1,.93,0c.48.43.93.89,1.53,1.48A6.42,6.42,0,0,1,110.66,106.13ZM108.74,103c.37-.28.48-.21.6.36a5.84,5.84,0,0,0,.15.6,1,1,0,0,1-.51,1.35,8.44,8.44,0,0,0-1.49,1.15l-.18.13-1.52-1.52a29.93,29.93,0,0,0,2.58-3A1.65,1.65,0,0,1,108.74,103Zm-1.92-39.23a1.85,1.85,0,0,0-.14.14c-.24-.27-.49-.53-.73-.79a1.37,1.37,0,0,1,.8,0A.35.35,0,0,1,106.82,63.76ZM69.28,78.57c0,.1.07.21.11.32.26.86.62,1.54,1.64,1.62a.46.46,0,0,1,.41.27c-.15.15-.34.07-.5.07h-.29a10.31,10.31,0,0,1,2.56,1.84,6.3,6.3,0,0,0,1,.8H68.3A15.71,15.71,0,0,1,69.28,78.57Zm5.27,4.78c.47.14.53-.14.53-.56a6.46,6.46,0,0,1,.17.7h-1C74.33,83.4,74.42,83.31,74.55,83.35Zm3.1.14a1,1,0,0,1,.44-.46c.2-.12,1-.28.26-.81-.16-.12,0-.3.15-.39a4.59,4.59,0,0,0,.49-.26,1.33,1.33,0,0,0,.65-1.09c0-.37-.57-.09-.84-.24a.66.66,0,0,0-.34-.06c-1-.07-1.16-.28-.71-1.19,0-.11.12-.22.18-.33l4.83,4.83Zm2.85-3.72c.53-.43,1.25-.25,1.86-.43a.56.56,0,0,1,.7.39c.13,0,.37.18.34,0a.4.4,0,0,1,.08-.28v3.36Zm.1-.71c-.1.17-.27.28-.37.45L78.6,77.88a1.61,1.61,0,0,1,.73-.31C79.87,77.51,80.87,78.65,80.6,79.06Zm.47-11.52a3.34,3.34,0,0,0-1.52-1.87,1.42,1.42,0,0,0-1.3-.25,1,1,0,0,1-.93-.12,4.63,4.63,0,0,0-1-.42,4.31,4.31,0,0,1-1.45.26,4.16,4.16,0,0,1,1.3.54A4.09,4.09,0,0,1,74,65.15a4.91,4.91,0,0,0-1.83.32.84.84,0,0,1-.62,0l.11.11c-.51.35-.85,0-1.19-.25s0-.27,0-.39l0-.06a4.55,4.55,0,0,0-3.17.79c-.15.21-.28.44-.43.66l-3.35-3.36a29.18,29.18,0,0,1,19.82-8.22V67.28A16,16,0,0,0,81.07,67.54Zm-14.62-.37a24.86,24.86,0,0,0-1.28,2.32,1.85,1.85,0,0,1-.6.67,4.55,4.55,0,0,0-1.75,2.21,1.29,1.29,0,0,1-1,.76c-.93.29-1.33,1.11-1.89,1.76a9.41,9.41,0,0,0-.62,1,.74.74,0,0,0,0,1,.58.58,0,0,1,0,.82c-.24.33-.51.24-.79.07a.92.92,0,0,0-.87,0c-.58.2-.77,0-.89-.58A12.57,12.57,0,0,0,56.19,75s0-.06,0-.1a29.33,29.33,0,0,1,6.78-11.25ZM59.89,83.49a7.1,7.1,0,0,0-.36-.65,5.29,5.29,0,0,1,.56,0,3,3,0,0,1,.08-2c-.5-.15-.61-.54-.91-1.59a.43.43,0,0,1,.16-.49A1.83,1.83,0,0,0,60,77.12a3.87,3.87,0,0,1,.08-.9,1.28,1.28,0,0,1,2-1,1,1,0,0,0,1,0,28.57,28.57,0,0,0-.55,3.22.72.72,0,0,1,.05.21,4.68,4.68,0,0,1-.21,1.53c0,.1,0,.2,0,.3s-.09.31-.22.35a1.42,1.42,0,0,0-.07.22,4.53,4.53,0,0,1,2.47-1.31,6.92,6.92,0,0,1,.46-1,5.08,5.08,0,0,0,.83-2.55c0-.28,0-.6-.36-.83A3.74,3.74,0,0,1,64.72,78a8.88,8.88,0,0,1,.86-3.6,4.8,4.8,0,0,0,.74-2.21,6.56,6.56,0,0,1,1.25-2.77c.24-.34.62-.28,1-.13l1.53,1.54A1.82,1.82,0,0,1,70,72.56a2.74,2.74,0,0,0-.62,2c.07.59-.53,1-.67,1.58a.77.77,0,0,1-.37.54,10.64,10.64,0,0,1,0,1.13h.17a16.56,16.56,0,0,0-1.19,5.69Zm22.87,1L72.54,94.73A15.67,15.67,0,0,1,68.3,84.51Zm.72.73V99.69a15.6,15.6,0,0,1-10.21-4.23Zm0-6.35c-.16-.16-.29-.11-.42,0s-.36,0-.54-.07c.27-.24-.51-.63.13-.81.2-.31.23-.72.55-1l.28-.19Zm-.3-8a2.73,2.73,0,0,1,.3-.21V71A1.2,1.2,0,0,0,83.18,70.9Zm-1.13-1.2a.84.84,0,0,1-.28-.62c-.34.14-.47,0-.52-.53a16.36,16.36,0,0,1,2.23-.25v2.21A4.13,4.13,0,0,1,82.05,69.7Zm1.43-16a30.21,30.21,0,0,0-20.55,8.53l-9.75-9.76a43.92,43.92,0,0,1,30.3-12.57ZM62.21,62.93a30.29,30.29,0,0,0-7.12,11.91c-.15-.48-.2-1-1-.73a3.94,3.94,0,0,1,.1-.47,18.8,18.8,0,0,1-2.26.81,1.2,1.2,0,0,1-.24,0c-.14.7-.25,1.42-.33,2.13a1,1,0,0,1-.45.82A3.26,3.26,0,0,0,49.46,80c-.09.59-.33.84-.86.87a8.24,8.24,0,0,1,0,1.32,1,1,0,0,1-.24.6h.17a1.3,1.3,0,0,1-.52.75h-.92a7.21,7.21,0,0,0-1.69-.42c-.12,0-.23-.13-.34-.2l0-.13h.75a16.46,16.46,0,0,1-4-2,.32.32,0,0,1-.33-.22,12.75,12.75,0,0,1-1.43-1.17A44,44,0,0,1,52.45,53.18ZM46.43,102.81a40.69,40.69,0,0,0,3.64,2.91c.51.31,1,.81,1.6.21.17-.15.4.06.57.17a6.31,6.31,0,0,1,1.66,1.47c.82,1,1.77,1.92,2.63,2.9l.13.14-4.21,4.21a44.09,44.09,0,0,1-8.51-12.36c1.34,1.1,2.67,2.24,4,3.35C47.4,104.84,46.89,103.85,46.43,102.81Zm14.24-1.12a.78.78,0,0,1-.05-.14c-.2-.66-.59-1.2-.75-1.88.33.14.46,0,.63-.36a3,3,0,0,0,0-2.87c-1-2-.82-4-.57-6.13a8.19,8.19,0,0,0-.1-2.56,5.76,5.76,0,0,1,0-3.24h7.5a16.64,16.64,0,0,0,4.54,10.95l-8.89,8.88A30.09,30.09,0,0,1,60.67,101.69Zm11.87-5.51a16.71,16.71,0,0,0,10.94,4.54v10.65c-1.2,0-2.18.76-3.3,1.08a.39.39,0,0,0-.26.55,29.16,29.16,0,0,1-16.26-7.93Zm12,4.54a16.49,16.49,0,0,0,4.24-.69,1.68,1.68,0,0,0,.41.65c.43.51.43.76,0,1.13a2.4,2.4,0,0,0-.33.5c.21.16.47.1.61.31-.21.14-.53.14-.65.43.86.1.86.11.44,1-.05.09-.07.17,0,.24.63.46.2,1.12.3,1.67.05.3-.18.23-.38.2-.54-.1-1.1-.18-1.65-.26a.67.67,0,0,0-.87.65c0,.44-.17.63-.45.69a2.65,2.65,0,0,1-.67,2.06c.17,0,.32.07.49.1.45.08.91.12,1.42.19a1.44,1.44,0,0,1-.92.51A2.21,2.21,0,0,0,85,111a.71.71,0,0,1-.47.3Zm38.75,2.55a7.81,7.81,0,0,0-.8-2.76.65.65,0,0,1-.29.13c-.42.09-.5.58-.65.93a12,12,0,0,1-1.78,3.06c-.34.4-.55.84-1.31.71-.45-.08-1,.43-1.53.72-1,.59-1,.6-1.8-.22l-1.17-1.11c.79-.23,1.43-.53,2.17-.16.57.28.94-.16,1.19-.58a18.87,18.87,0,0,0,1.6-3.92,7,7,0,0,0,.29-3.7c0-.18,0-.41-.22-.49s-.39.1-.52.25c-.3.32-.54.72-1,.79-.18,0-.2.16-.22.31s-.08.5-.12.75a2,2,0,0,1-2.29,1.65c-.31-.06-.33-.23-.18-.44a.78.78,0,0,1,.34-.25c1-.34,1.5-1.22,2.18-2a12.6,12.6,0,0,0,2.09-4.09,3.38,3.38,0,0,1,1.55-1.71,1,1,0,0,0,.41-1.11c0-.33.06-.41.35-.39,1.43.12,2.38-.83,3.35-1.62a1.35,1.35,0,0,0-.64-2.12,1.22,1.22,0,0,1-1-.81l-.24-.61h5.16a43.84,43.84,0,0,1-5.26,20.36,5.4,5.4,0,0,0,.1-.58,1.76,1.76,0,0,1,.35-.76A2.38,2.38,0,0,1,123.26,103.27Zm-.7-19.78c-.07-.2-.15-.39-.23-.6h.41A2.13,2.13,0,0,1,122,81h0a.76.76,0,0,1-.55-1.16c.43-.58.41-1.45,1.25-1.76.27-.11.09-.46,0-.69a1.15,1.15,0,0,1,1-1.76.76.76,0,0,0,.8-.67,2.27,2.27,0,0,1,.42-.87,2,2,0,0,0,.4-.86,10,10,0,0,1,0,2,2.68,2.68,0,0,1,.77-.21,8.75,8.75,0,0,1,.47-1.53,10.61,10.61,0,0,0-.94-2.34c-.07.38-.17.76-.27,1.14-.46-.55-.87-.49-1.1.14a1.3,1.3,0,0,0-.09.68,2.73,2.73,0,0,1-.12,1.17c-.08.32-.17.75-.64.68s-.59-.37-.58-.81a6.8,6.8,0,0,1,.13-1.8A2.84,2.84,0,0,0,121.29,70a.55.55,0,0,0-.71.48c-.09.4-.1.83-.19,1.24-.13.57-.37.64-.8.24a1.49,1.49,0,0,1-.58-1c.14-.3.73.16.67-.34a.59.59,0,0,0-.86-.51c-.27.08-.43-.16-.56-.34-.29-.37-.56-.75-.82-1.13a4,4,0,0,0-2.53-1.71,2.68,2.68,0,0,1-.37-.12l-.36.11A4.55,4.55,0,0,1,112,67a14.7,14.7,0,0,1,.87,1.41c-.62,0-.87-.52-1.34-.56-.07.75.87,1,.79,1.77a3.45,3.45,0,0,1-1.17-.57c-.15-.11-.42-.22,0-.41s0-.27-.09-.38c-.68-.59-.83-1.11-.4-1.77a4.87,4.87,0,0,1-1-.83c0,.15-.1.35-.17.61,0,.11,0,.35-.2.25a1.54,1.54,0,0,0-.55-.14c-.24-.34-.49-.67-.75-1l.61-.61a2.28,2.28,0,0,1,.23-.22,6.51,6.51,0,0,1-.68-1.82,8.63,8.63,0,0,0-1.48-.6l9-9a44,44,0,0,1,12.57,30.31Zm-6.29-31,2.6-2.59L119,50a2.26,2.26,0,0,1,.86.32,4.61,4.61,0,0,1,1.59,1.64l0,0c.15-.16.27-.31.49-.06a8,8,0,0,0,2.58,1.45,13.17,13.17,0,0,1,2.63,2c.59.53,1.12,1.12,1.73,1.62a.94.94,0,0,0,1.55-.62,6.63,6.63,0,0,1,.21-.88c.06-.2,0-.53.28-.56a.6.6,0,0,1,.42.1,5,5,0,0,0,.27-2.19A56.62,56.62,0,0,1,141,83.49H129.14A45,45,0,0,0,116.27,52.45Zm13.79-2A18.85,18.85,0,0,0,126.92,49l.22.24-.08.1-1.85-1.13,0,0a8.81,8.81,0,0,1-1.56-1.41.65.65,0,0,1-.37-.2l-.63-.54,2-2A57.22,57.22,0,0,1,130.06,50.49ZM84.51,27a56.83,56.83,0,0,1,39.41,16.35l-2,2a5.84,5.84,0,0,1-1.58-2.11.64.64,0,0,0-.4-.36c-.52-.1-.67-.57-1-.89a2.19,2.19,0,0,1,1,.56l.36.29c-.49-.47-1-.95-1.46-1.46-1-1-3.43-4.45-4.92-4.38-1.09.06-2.16.12-3.23.11a3.8,3.8,0,0,1-1.59.48,2.85,2.85,0,0,0-.42,0c-.45.14-1,.13-1.22.67s.25.89.58,1.19c1,.95,1.83,2.12,2.95,3,.13.09.32.24.32.35-.06,1.16,1.24,1.6,1.39,2.66,0,.34.46.32.7.16,1.28-.81,2.15-.18,2.94.8,0,0,0,0,0,0,.19.22.54.41.47.73s-.51.07-.79.37a13,13,0,0,1,2,1.6l-2.52,2.52a45,45,0,0,0-31-12.88Zm0,12.87a44,44,0,0,1,30.31,12.57l-9.75,9.76a30.22,30.22,0,0,0-20.56-8.53Zm0,14.83a29.17,29.17,0,0,1,19.83,8.23l-.31.31a3,3,0,0,0-1.54-.09c.24.18.45.25.49.37a1.65,1.65,0,0,0,.27.5l-4.49,4.49a3.44,3.44,0,0,1-1-.61c-.39-.39-1.14,0-1.64-.43a1.29,1.29,0,0,0-.28-.12,3.08,3.08,0,0,1,.94-.64,2.51,2.51,0,0,0,1-2.57c-.08-.25-.18-.21-.35-.12a8.84,8.84,0,0,0-2.27,1.63c-.13.15-.06.35,0,.53,0,.74-.12.85-.85.68a11.57,11.57,0,0,0-2.41-.41c-.23,0-.34-.07-.38-.23a3.76,3.76,0,0,1-1.32,1,3.38,3.38,0,0,1-.49,1,16.46,16.46,0,0,0-5.13-1Zm5,14.6a4.64,4.64,0,0,0-1.94,1.36c-.58.52-1.11,1.19-2,1.19A1.1,1.1,0,0,1,85,71.8a5.54,5.54,0,0,1-.51-.33V68.3A15.73,15.73,0,0,1,89.52,69.31Zm-6-42.3V38.85a45,45,0,0,0-31,12.88l-8.37-8.37A56.82,56.82,0,0,1,83.48,27ZM43.36,44.08l8.37,8.37a45,45,0,0,0-12.64,26.9l-.18-.13A1,1,0,0,1,37.75,79l0,.13a1.29,1.29,0,0,0,.41,1c.1.12.26.27.1.43s-.25,0-.35-.11c-.32-.26-.64-.46-.88.12-.38-.73-.32-1.51-.69-2.17-.06-.12-.13-.41-.29-.27-.56.5-.49,0-.59-.32-.25-.69-.5-.75-1-.23s-.89,1.07-1.76,1.13a.61.61,0,0,0-.32.13A9.46,9.46,0,0,1,31,82.75c.3.07.33.25.24.74H27A56.78,56.78,0,0,1,43.36,44.08ZM27,84.51h4a8.36,8.36,0,0,0,.11,3.19,2.3,2.3,0,0,1,.06.28c.2.39.42.77.63,1.15a6.71,6.71,0,0,1,.75-2.78,2.49,2.49,0,0,1,1.06-.81c.14-.06.28.29.31.49.25,1.21,1.2,2.08,1.52,3.26.06.21.22.51.45.47s.24-.4.27-.64a3.76,3.76,0,0,1,.1-1.25c0-.09,0-.25.2-.22a.32.32,0,0,1,.2.18,4.2,4.2,0,0,1,.21.66,5.31,5.31,0,0,0,1.66,2.67c.23.23,0,.64.44.73.11-.51-.17-1.12.3-1.63a45,45,0,0,0,12.44,25.29l-8.37,8.37A56.78,56.78,0,0,1,27,84.51ZM83.48,141a56.82,56.82,0,0,1-39.4-16.35l8.37-8.37a45,45,0,0,0,31,12.88Zm-30.3-25.44,4.28-4.29a2.17,2.17,0,0,0,.87.27l-.24.25c.67.24,1.33.51,2,.79l1.17-1.19a.88.88,0,0,1,1.2-.23,9.25,9.25,0,0,0,2.16,1,4.15,4.15,0,0,1,1.07.4c1-.28,2.07-.65,2.32-1.23a38.35,38.35,0,0,1-3-2.54c-.31-.3-.43-.48-.27-.76a5,5,0,0,1-.84-1,5.35,5.35,0,0,1-.29-.59l-.32.29c-.15-.23-.31-.46-.47-.68l.18-.18A30.25,30.25,0,0,0,79.77,114a3,3,0,0,1-.34.4c-.84.78-.81,1.14,0,1.84a5,5,0,0,1,1,1.16l-.56-.11c.89,1.33,2,1.74,3.45,2.69l.07.06v8.06A44,44,0,0,1,53.18,115.55ZM84.51,141V129.15a44.85,44.85,0,0,0,18.2-4.08v0a5.72,5.72,0,0,0-.86,1.1c-.35.68-.24,1.1.47,1.39s1.54.51,2.51.82l-.64.18a6.81,6.81,0,0,1,1.5.68c.28,0,.56,0,.87,0a2.46,2.46,0,0,1,1.59.64,3,3,0,0,1,1.49.65,1.53,1.53,0,0,0,1.24.37,2,2,0,0,0,.68-.18,37.4,37.4,0,0,0,7.09-4.11,8.85,8.85,0,0,0,2.28-3,8.69,8.69,0,0,1,.77-1.28l2.23,2.23A56.83,56.83,0,0,1,84.51,141Zm40.13-17.08-2.27-2.27a5.28,5.28,0,0,1,.57-.47c.3-.21.59-.45.87-.69a21,21,0,0,1-.32-2.63,1.49,1.49,0,0,1-.64.35c-.28-.26-.77.16-.88-.34a3.36,3.36,0,0,1,.9-1.52,8.53,8.53,0,0,1,.69.65,4.44,4.44,0,0,1,.72-1.94c-.31-.35-.37-.73,0-1.32s-.4-1.84-1.26-1.79a12.27,12.27,0,0,1-1.23-.09c-.66,0-.61-.4-.58-.83a10.08,10.08,0,0,1,.54-2.23l0-.14a44.9,44.9,0,0,0,7.34-24.14H141A56.78,56.78,0,0,1,124.64,123.91Z"/><path class="cls-1" d="M121.17,61.35h-.11a3.09,3.09,0,0,1-1,0c.21.3.54.52.65.92a2.36,2.36,0,0,1-1-1A2.68,2.68,0,0,1,119,61c.39.5.77,1,1.16,1.43.76.87,1.35.81,2-.21.13.21.26.42.38.63a3.65,3.65,0,0,0-.78-1.27C121.35,61.79,121.23,61.83,121.17,61.35Z"/><path class="cls-1" d="M128.25,106.5q-.06.77-.15,1.53a4.86,4.86,0,0,1-.77,1.85c-.46.77-.43.9.29,1.4a.53.53,0,0,1,.22.46c0,.36-.12.75.21,1.06.14.12,0,.25-.11.34l-.17.19a2.68,2.68,0,0,1,1.92,1.16c.65-.78,1.29-1.56,1.89-2.36-.16-.79-.38-1.6-.51-2.44,0-.2,0-.41-.08-.61l-.1.12c-.49-.89-.38-1.92-1.1-2.62a.23.23,0,0,1-.06-.19c.21-.49.08-.78-.47-.8A.91.91,0,0,0,128.25,106.5Z"/><polygon class="cls-9" points="117.86 72.71 95.29 72.71 95.29 50.13 72.71 50.13 72.71 72.71 50.13 72.71 50.13 95.29 72.71 95.29 72.71 117.87 95.29 117.87 95.29 95.29 117.86 95.29 117.86 72.71"/><path class="cls-10" d="M16.07,74.17q.72-3.32,1.42-6.64l-5.57,4.73-1.41,6.65Z"/><path class="cls-10" d="M11.24,72.1c-1.05-2.24-2.09-4.47-3.13-6.71C7.64,67.6,7.16,69.82,6.69,72l3.13,6.72C10.29,76.53,10.76,74.32,11.24,72.1Z"/><path class="cls-10" d="M15.76,75.81l-4.82,5.55c-.14,2.26-.29,4.53-.43,6.79l4.81-5.55C15.47,80.34,15.61,78.08,15.76,75.81Z"/><path class="cls-10" d="M10.24,81.31,6.16,75.17C6,77.43,5.87,79.7,5.73,82L9.8,88.1C10,85.84,10.09,83.58,10.24,81.31Z"/><path class="cls-10" d="M15.53,91.25c-.07-2.27-.15-4.53-.23-6.8l-4.24,6q.11,3.39.23,6.8Z"/><path class="cls-10" d="M10.35,90.5c-1.55-1.89-3.1-3.79-4.66-5.68l.24,6.8,4.65,5.68C10.51,95,10.42,92.77,10.35,90.5Z"/><path class="cls-10" d="M16.85,99.6c-.41-2.23-.81-4.45-1.22-6.68-1.11,2.2-2.21,4.41-3.32,6.62.4,2.23.81,4.45,1.22,6.68C14.63,104,15.75,101.81,16.85,99.6Z"/><path class="cls-10" d="M11.61,99.68l-5.42-4.9C6.6,97,7,99.24,7.41,101.47l5.42,4.89Q12.23,103,11.61,99.68Z"/><path class="cls-10" d="M19.15,107.73,17,101.3c-.78,2.35-1.56,4.71-2.35,7.06q1.09,3.21,2.17,6.42Z"/><path class="cls-10" d="M14,108.6l-6.07-4L10.08,111l6.07,4Q15.06,111.81,14,108.6Z"/><path class="cls-10" d="M22.51,115.65c-.93-2.05-1.84-4.11-2.76-6.17-.56,2.43-1.11,4.84-1.67,7.26l2.76,6.18C21.4,120.5,22,118.07,22.51,115.65Z"/><path class="cls-10" d="M17.44,117.06,11,113.69l2.76,6.17,6.41,3.36Z"/><path class="cls-10" d="M22.53,124.64l3.59,5.7.63-7.44c-1.2-1.89-2.39-3.79-3.59-5.69Z"/><path class="cls-10" d="M21.94,125.05l-6.82-2.37c1.2,1.89,2.39,3.79,3.59,5.69l6.82,2.36Z"/><path class="cls-10" d="M27.87,131.86l4.1,5.31q0-3.72,0-7.46l-4.1-5.31Q27.85,128.14,27.87,131.86Z"/><path class="cls-10" d="M27.32,132.32l-7-1.68,4.1,5.31,7,1.68Z"/><path class="cls-10" d="M33,131l1.08,7.38L38.9,143l-1.08-7.37Z"/><path class="cls-10" d="M33.63,138.86l-7.17-.62,4.79,4.65,7.17.62Z"/><path class="cls-10" d="M46.47,147.81l-2.1-7.14L39,136.79q1,3.57,2.09,7.14Z"/><path class="cls-10" d="M40.68,144.53,33.5,145l5.38,3.88,7.18-.45Z"/><path class="cls-10" d="M45.9,141.66q1.37,3.43,2.75,6.89l5.72,3.32c-.92-2.29-1.83-4.59-2.75-6.89Z"/><path class="cls-10" d="M48.3,149.19l-7.1,1.17,5.72,3.32,7.1-1.17Z"/><path class="cls-10" d="M53.08,145.72l3.69,6.4,6.13,2.41-3.69-6.4Z"/><path class="cls-10" d="M49.66,155l6.13,2.41,6.86-2.24-6.13-2.41Z"/><polygon class="cls-10" points="16.82 56.33 12.22 62.41 11.99 70.12 16.58 64.04 16.82 56.33"/><path class="cls-10" d="M129,136.79l-5.39,3.88q-1,3.57-2.09,7.14l5.39-3.88Q128,140.36,129,136.79Z"/><path class="cls-10" d="M136.58,137.63l7-1.68,4.1-5.31-7,1.68Z"/><path class="cls-10" d="M157.48,78.9c-.47-2.22-.95-4.43-1.42-6.65l-5.56-4.73,1.41,6.65Z"/><path class="cls-10" d="M113.63,151.87l5.73-3.32c.91-2.3,1.83-4.6,2.74-6.89L116.38,145Q115,148.43,113.63,151.87Z"/><path class="cls-10" d="M155.16,106.35l5.43-4.89q.6-3.34,1.21-6.69l-5.42,4.9C156,101.9,155.56,104.12,155.16,106.35Z"/><path class="cls-10" d="M142.47,130.73l6.82-2.37c1.19-1.9,2.39-3.79,3.59-5.69L146.06,125Z"/><path class="cls-10" d="M153.35,108.36c-.79-2.36-1.56-4.71-2.35-7.06l-2.16,6.42q1.17,3.54,2.35,7.06Z"/><path class="cls-10" d="M141.24,122.9q.33,3.7.64,7.43l3.59-5.69c-.22-2.48-.42-5-.64-7.43Z"/><path class="cls-10" d="M149.91,116.74c-.55-2.42-1.11-4.84-1.66-7.26l-2.76,6.17q.82,3.63,1.67,7.26C148.07,120.85,149,118.8,149.91,116.74Z"/><path class="cls-10" d="M151.85,115l6.07-4,2.16-6.42-6.07,4Z"/><path class="cls-10" d="M147.8,123.22l6.41-3.37,2.76-6.17-6.42,3.37C149.63,119.1,148.72,121.16,147.8,123.22Z"/><path class="cls-10" d="M161.3,72c-.47-2.22-1-4.43-1.42-6.65l-3.13,6.72c.47,2.21.95,4.43,1.42,6.64C159.21,76.5,160.25,74.27,161.3,72Z"/><path class="cls-10" d="M121.94,148.41l7.18.45L134.5,145l-7.18-.45Z"/><path class="cls-10" d="M114,152.51l7.1,1.17,5.72-3.32-7.1-1.17Z"/><path class="cls-10" d="M157.64,90.49c-.07,2.27-.15,4.54-.22,6.81,1.54-1.9,3.09-3.79,4.64-5.69.08-2.27.16-4.53.23-6.8Z"/><path class="cls-10" d="M157.05,81.36l-4.82-5.55c.15,2.26.29,4.52.44,6.79l4.81,5.55C157.34,85.88,157.19,83.62,157.05,81.36Z"/><path class="cls-10" d="M114.92,145.72l-6.12,2.41-3.7,6.4,6.13-2.41Z"/><path class="cls-10" d="M158.19,88.1q2-3.07,4.07-6.15c-.15-2.26-.29-4.53-.43-6.79l-4.08,6.15C157.9,83.57,158,85.83,158.19,88.1Z"/><path class="cls-10" d="M156.94,90.47l-4.25-6-.24,6.8,4.26,6Q156.82,93.87,156.94,90.47Z"/><path class="cls-10" d="M129.58,143.51l7.16-.63,4.8-4.64-7.17.62Z"/><path class="cls-10" d="M155.69,99.53l-3.33-6.62c-.41,2.23-.81,4.46-1.22,6.69l3.33,6.61Q155.07,102.88,155.69,99.53Z"/><path class="cls-10" d="M129.1,143l4.79-4.64c.35-2.46.72-4.92,1.07-7.38l-4.78,4.65Z"/><path class="cls-10" d="M136,137.17l4.09-5.31.06-7.46-4.1,5.31C136.06,132.2,136,134.68,136,137.17Z"/><path class="cls-10" d="M105.36,155.21l6.86,2.24,6.13-2.41-6.87-2.24Z"/><polygon class="cls-10" points="151.49 64.03 156.09 70.12 155.85 62.4 151.26 56.32 151.49 64.03"/><path class="cls-10" d="M87.39,158.18a28.93,28.93,0,0,0-3.39.21,27.84,27.84,0,0,0-3.46-.21,49.92,49.92,0,0,1-17.22-3c3.91,2.85,8.3,3.75,15.28,4.63a8.59,8.59,0,0,0-3.89,3.05l3.7,1.93s.58-2.64,5.57-4.07c5,1.43,5.55,4.07,5.55,4.07l3.7-1.94a8.62,8.62,0,0,0-3.87-3c7-.88,11.35-1.78,15.26-4.63A49.66,49.66,0,0,1,87.39,158.18Z"/><path class="cls-10" d="M20.14,52.87,18.33,52l.32-.64a3.66,3.66,0,0,0,.36-.94,2,2,0,0,0,0-1,1.87,1.87,0,0,0-.46-.8,2.45,2.45,0,0,0-.75-.57A2.14,2.14,0,0,0,15.92,48a1.88,1.88,0,0,0-.78.67,4.2,4.2,0,0,0-.29.44c-.07.12-.15.27-.24.46l-.94,1.88,5.77,2.89Zm-2.8-2.14-.3.59-1.37-.68.27-.55a1.68,1.68,0,0,1,.45-.61.64.64,0,0,1,.72,0,.68.68,0,0,1,.42.56A1.51,1.51,0,0,1,17.34,50.73Z"/><polygon class="cls-10" points="22.83 47.87 20.64 46.52 21.74 44.72 23.93 46.07 24.8 44.66 19.29 41.3 18.43 42.7 20.5 43.97 19.4 45.77 17.33 44.5 16.47 45.91 21.97 49.27 22.83 47.87"/><path class="cls-10" d="M21.53,40.15a2.82,2.82,0,0,0,.32.78,3.71,3.71,0,0,0,.95,1,3.09,3.09,0,0,0,2.46.6,3.51,3.51,0,0,0,2.89-3.83,3.38,3.38,0,0,0-3.81-2.89,3.34,3.34,0,0,0-2.22,1.34A3.25,3.25,0,0,0,21.53,40.15Zm1.75-2.1a1.63,1.63,0,0,1,1.23-.67,1.93,1.93,0,0,1,1.34.43A1.91,1.91,0,0,1,26.61,39a1.59,1.59,0,0,1-.29,1.35,1.65,1.65,0,0,1-1.24.68,2,2,0,0,1-1.37-.42A1.92,1.92,0,0,1,23,39.41,1.63,1.63,0,0,1,23.28,38.05Z"/><polygon class="cls-10" points="22.39 36.5 21.96 35.67 19.8 36.68 20.34 37.65 22.39 36.5"/><polygon class="cls-10" points="31.14 36.56 28.23 33.93 28.24 33.91 32.79 34.78 33.76 33.73 29.03 29.34 27.96 30.5 30.97 33.19 30.97 33.22 26.3 32.29 25.33 33.33 30.06 37.72 31.14 36.56"/><path class="cls-10" d="M34.61,31.74a3.31,3.31,0,0,0,2.46-.87A3.36,3.36,0,0,0,37.36,26l-.11-.12-.12-.12-2.87,2.53.87,1L36.57,28a1.27,1.27,0,0,1,.09,1,1.76,1.76,0,0,1-.55.83,1.67,1.67,0,0,1-1.35.43,2,2,0,0,1-1.26-.71A1.86,1.86,0,0,1,33,28.2a1.64,1.64,0,0,1,.59-1.26,1.54,1.54,0,0,1,1.62-.32l1.38-1.22a2.91,2.91,0,0,0-2-.42,3.56,3.56,0,0,0-3.11,3.16,3.08,3.08,0,0,0,.82,2.46A3.25,3.25,0,0,0,34.61,31.74Z"/><polygon class="cls-10" points="44.11 25.23 42.56 22.91 42.58 22.9 45.59 24.24 47.19 23.18 43.5 21.75 43.5 17.89 42.06 18.84 42.15 22.27 42.14 22.28 40.53 19.86 39.16 20.78 42.73 26.14 44.11 25.23"/><polygon class="cls-10" points="49.25 22.04 48.02 19.77 49.88 18.76 51.11 21.03 52.56 20.25 49.48 14.57 48.03 15.36 49.19 17.49 47.33 18.5 46.18 16.37 44.73 17.15 47.81 22.82 49.25 22.04"/><path class="cls-10" d="M57.5,18.07l1.65-.7-4.89-4.93-1.2.51.15,7,1.63-.69-.05-1,2.06-.88Zm-2.81-1.23-.25-2.29h0l1.48,1.77Z"/><polygon class="cls-10" points="54.49 10.97 53.66 10.21 52.18 12.06 52.89 12.69 54.49 10.97"/><polygon class="cls-10" points="61.26 16.67 59.79 12.07 59.8 12.05 62.54 16.28 63.58 15.96 63.47 10.92 63.49 10.93 64.86 15.56 66.31 15.12 64.41 8.95 62.38 9.58 62.42 14.01 62.41 14.01 59.94 10.33 57.91 10.95 59.81 17.12 61.26 16.67"/><path class="cls-10" d="M69.58,11.75l.58-.09.39,2.55L73,13.83a3.07,3.07,0,0,0,2.15-1.23,3.28,3.28,0,0,0,.46-2.45,3.35,3.35,0,0,0-.89-1.89,2.75,2.75,0,0,0-1.38-.78,3,3,0,0,0-.76-.06,7,7,0,0,0-.83.08l-2.14.33.37,2.4-.58.09ZM72.12,8.9a1.45,1.45,0,0,1,1.26.32A2.06,2.06,0,0,1,74,10.43a2,2,0,0,1-.17,1.31,1.5,1.5,0,0,1-1.12.68l-.7.1-.17-1.11.93-.15-.23-1.43-.93.15-.15-1Z"/><path class="cls-10" d="M78.58,12.24l2.23-.13.37.91,1.79-.1L80,6.63l-1.3.07-2.2,6.6,1.76-.11Zm.91-3.57h0l.79,2.16L79,10.91Z"/><polygon class="cls-10" points="88.56 10.33 88.58 10.33 90.14 13.23 92.06 13.37 90.02 9.98 92.37 6.92 90.65 6.8 88.63 9.57 88.61 9.57 88.82 6.67 87.17 6.56 86.72 12.99 88.36 13.11 88.56 10.33"/><polygon class="cls-10" points="94.8 11.18 96.89 11.52 96.47 14.06 98.1 14.33 99.13 7.96 97.5 7.7 97.12 10.09 95.03 9.75 95.42 7.36 93.8 7.1 92.76 13.46 94.39 13.73 94.8 11.18"/><path class="cls-10" d="M106.45,13.13a3.23,3.23,0,0,0-.35-2.56A3.32,3.32,0,0,0,104,9a3.24,3.24,0,0,0-3,.58,2.74,2.74,0,0,0-.59.59,3.67,3.67,0,0,0-.6,1.26,3,3,0,0,0,.38,2.51,3.49,3.49,0,0,0,4.64,1.22A3.22,3.22,0,0,0,106.45,13.13Zm-1.6-.42a1.92,1.92,0,0,1-.8,1.15,1.57,1.57,0,0,1-1.36.24,1.67,1.67,0,0,1-1.1-.89,2,2,0,0,1-.12-1.43,1.92,1.92,0,0,1,.8-1.15,1.67,1.67,0,0,1,1.38-.21,1.59,1.59,0,0,1,1.08.89A1.87,1.87,0,0,1,104.85,12.71Z"/><path class="cls-10" d="M107.55,17l.64-.75,2.1.79,0,1,1.67.63-.14-6.95-1.21-.45-4.69,5.13Zm2.92-3.65h0l-.15,2.3-1.27-.47Z"/><polygon class="cls-10" points="117.86 18.63 119.72 19.63 118.5 21.9 119.95 22.68 123 17 121.55 16.22 120.4 18.35 118.54 17.35 119.69 15.22 118.24 14.44 115.19 20.12 116.64 20.9 117.86 18.63"/><path class="cls-10" d="M122.52,20.53a3,3,0,0,0-.45,2.49,3.48,3.48,0,0,0,4,2.66,3.16,3.16,0,0,0,2.16-1.42,3.2,3.2,0,0,0,.51-2.54,3.34,3.34,0,0,0-1.46-2.14,3.24,3.24,0,0,0-3-.42,3,3,0,0,0-.76.36A3.93,3.93,0,0,0,122.52,20.53Zm1.43.83a1.92,1.92,0,0,1,1.13-.82,1.66,1.66,0,0,1,1.38.25,1.63,1.63,0,0,1,.73,1.19,1.94,1.94,0,0,1-.35,1.36,1.92,1.92,0,0,1-1.13.83,1.6,1.6,0,0,1-1.36-.22,1.66,1.66,0,0,1-.75-1.2A1.93,1.93,0,0,1,124,21.36Z"/><path class="cls-10" d="M128.13,28.34l.86-.5,1.72,1.42-.35.92,1.38,1.14,2.14-6.6-1-.83-6.11,3.32Zm4-2.5,0,0-.9,2.12-1-.86Z"/><polygon class="cls-10" points="134.96 24.11 134.04 21.91 133.05 22.41 134.11 24.51 134.96 24.11"/><polygon class="cls-10" points="133.39 32.95 136.12 30.15 136.14 30.16 135.1 34.67 136.12 35.68 140.68 31.12 139.56 30 136.76 32.91 136.73 32.91 137.83 28.28 136.83 27.28 132.27 31.84 133.39 32.95"/><path class="cls-10" d="M140.61,41.32a3.33,3.33,0,0,0,4,1.07l-1-1.38a1.65,1.65,0,0,1-1.81-.58,1.58,1.58,0,0,1-.29-1.36,2.08,2.08,0,0,1,2.11-1.6,1.63,1.63,0,0,1,1.21.66,1.56,1.56,0,0,1,0,1.92l1,1.38a2.68,2.68,0,0,0,.58-1,3.24,3.24,0,0,0-.5-3.18,3.33,3.33,0,0,0-2.21-1.33,3.36,3.36,0,0,0-3.8,2.89A3.34,3.34,0,0,0,140.61,41.32Z"/><polygon class="cls-10" points="151.01 43.02 150.79 43.63 151.52 44.82 152.07 42.94 151.58 42.14 149.63 41.74 150.37 42.95 151.01 43.02"/><path class="cls-10" d="M150.44,44.14,149.76,43l-6.85,1.17.92,1.5,1-.19L146,47.42l-.63.75.93,1.53Zm-2.06.48,0,0-1.54,1.71-.7-1.15Z"/><polygon class="cls-10" points="153.32 43.68 153.17 41.3 152.06 41.45 152.39 43.78 153.32 43.68"/><path class="cls-10" d="M149.94,52.35a1.29,1.29,0,0,1-.4.08.7.7,0,0,1-.66-.45.72.72,0,0,1,.05-.8,1.17,1.17,0,0,1,.3-.28,4.19,4.19,0,0,1,.39-.22L153.11,49l-.73-1.48-3.49,1.73a5.56,5.56,0,0,0-.51.27,2.69,2.69,0,0,0-.41.29,2.3,2.3,0,0,0-.58.9,2.05,2.05,0,0,0-.1,1,2.88,2.88,0,0,0,.31,1,2.38,2.38,0,0,0,1.42,1.3,2.08,2.08,0,0,0,1,.08,4.33,4.33,0,0,0,1-.38l3.49-1.72-.73-1.48-3.49,1.73Z"/></svg>