<svg id="Layer_1" data-name="Layer 1" xmlns="http://www.w3.org/2000/svg" viewBox="0 0 77.7 77.7"><defs><style>.cls-1{fill:#17a6db;}</style></defs><path class="cls-1" d="M26.71,49.47A1.52,1.52,0,1,0,28.23,51a1.52,1.52,0,0,0-1.52-1.52Zm0,0"/><path class="cls-1" d="M63.13,6.07H46.29a7.59,7.59,0,0,0-14.88,0H14.57A4.55,4.55,0,0,0,10,10.62V73.15a4.55,4.55,0,0,0,4.55,4.55H63.13a4.55,4.55,0,0,0,4.55-4.55V10.62a4.55,4.55,0,0,0-4.55-4.55Zm-34.9,3h4.55A1.52,1.52,0,0,0,34.3,7.59a4.55,4.55,0,1,1,9.1,0,1.52,1.52,0,0,0,1.52,1.52h4.55v3H28.23Zm30.35,6.07V68.59H19.12V15.18Zm6.07,58a1.52,1.52,0,0,1-1.52,1.51H14.57a1.52,1.52,0,0,1-1.52-1.51V10.62a1.52,1.52,0,0,1,1.52-1.51H25.19v3H17.6a1.52,1.52,0,0,0-1.51,1.52V70.11a1.52,1.52,0,0,0,1.51,1.52H60.1a1.52,1.52,0,0,0,1.51-1.52V13.66a1.52,1.52,0,0,0-1.51-1.52H52.51v-3H63.13a1.52,1.52,0,0,1,1.52,1.51Zm0,0"/><path class="cls-1" d="M51,58.58H26.71a1.52,1.52,0,1,0,0,3H51a1.52,1.52,0,1,0,0-3Zm0,0"/><path class="cls-1" d="M51,49.47H32.78a1.52,1.52,0,0,0,0,3H51a1.52,1.52,0,0,0,0-3Zm0,0"/><path class="cls-1" d="M38.85,22.16A10.62,10.62,0,1,0,49.47,32.78,10.63,10.63,0,0,0,38.85,22.16Zm0,18.21a7.59,7.59,0,1,1,7.59-7.59,7.61,7.61,0,0,1-7.59,7.59Zm0,0"/><path class="cls-1" d="M41.89,31.26H40.37V29.74a1.52,1.52,0,0,0-3,0v1.52H35.81a1.52,1.52,0,0,0,0,3h1.52v1.51a1.52,1.52,0,1,0,3,0V34.3h1.52a1.52,1.52,0,0,0,0-3Zm0,0"/></svg>