<?xml version="1.0" encoding="utf-8"?>
<!-- Generator: Adobe Illustrator 24.1.2, SVG Export Plug-In . SVG Version: 6.00 Build 0)  -->
<svg version="1.1" id="Layer_1" xmlns="http://www.w3.org/2000/svg" xmlns:xlink="http://www.w3.org/1999/xlink" x="0px" y="0px"
	 viewBox="0 0 17.9 17.9" style="enable-background:new 0 0 17.9 17.9;" xml:space="preserve">
<style type="text/css">
	.st0{fill:#FFFFFF;}
</style>
<path class="st0" d="M17.9,2.4c0,8.6-7,15.6-15.6,15.6c0,0,0,0,0,0c-0.7,0-1.4-0.5-1.6-1.3L0,13.4c-0.2-0.8,0.3-1.6,1-1.8L4.5,10
	c0.7-0.3,1.4-0.1,1.9,0.5l1.2,1.4c1.8-1,3.3-2.5,4.3-4.3l-1.4-1.2C9.9,6,9.7,5.2,10,4.5L11.6,1c0.3-0.7,1.1-1.2,1.8-1l3.3,0.8
	C17.4,1,17.9,1.6,17.9,2.4z M16.3,2.4l-3.2-0.7l-1.5,3.4l2.4,2c-1.3,3.1-3.8,5.6-6.9,6.9l-2-2.4l-3.4,1.5l0.7,3.2
	C10,16.2,16.2,10,16.3,2.4z"/>
</svg>
